<?xml version="1.0" encoding="UTF-8" standalone="no"?>
<!-- Created with Inkscape (http://www.inkscape.org/) -->

<svg
   width="68.767265mm"
   height="105.28616mm"
   viewBox="0 0 68.767265 105.28616"
   version="1.1"
   id="svg1"
   inkscape:export-filename="Right_Hero.png"
   inkscape:export-xdpi="96"
   inkscape:export-ydpi="96"
   inkscape:version="1.4.3 (0d15f75, 2025-12-25)"
   sodipodi:docname="right hero.svg"
   xmlns:inkscape="http://www.inkscape.org/namespaces/inkscape"
   xmlns:sodipodi="http://sodipodi.sourceforge.net/DTD/sodipodi-0.dtd"
   xmlns="http://www.w3.org/2000/svg"
   xmlns:svg="http://www.w3.org/2000/svg">
  <sodipodi:namedview
     id="namedview1"
     pagecolor="#ffffff"
     bordercolor="#000000"
     borderopacity="0.25"
     inkscape:showpageshadow="2"
     inkscape:pageopacity="0.0"
     inkscape:pagecheckerboard="0"
     inkscape:deskcolor="#d1d1d1"
     inkscape:document-units="mm"
     inkscape:zoom="0.71891835"
     inkscape:cx="127.97003"
     inkscape:cy="195.43249"
     inkscape:window-width="1920"
     inkscape:window-height="1009"
     inkscape:window-x="-8"
     inkscape:window-y="-8"
     inkscape:window-maximized="1"
     inkscape:current-layer="layer1" />
  <defs
     id="defs1" />
  <g
     inkscape:label="Layer 1"
     inkscape:groupmode="layer"
     id="layer1"
     transform="translate(-71.117135,-96.895222)">
    <path
       d="m 114.52298,202.02016 c 0.191,-0.0764 0.4192,-0.067 0.50712,0.0209 0.0879,0.0879 -0.0684,0.15045 -0.34726,0.13897 -0.30824,-0.0127 -0.37092,-0.0754 -0.15986,-0.15986 z m -23.742015,-0.76735 c 0.0127,-0.30823 0.0754,-0.37092 0.15986,-0.15986 0.0764,0.191 0.067,0.4192 -0.0209,0.50712 -0.0879,0.0879 -0.15047,-0.0684 -0.13899,-0.34726 z m 2.64583,-0.26459 c 0.0127,-0.30822 0.0754,-0.37092 0.15987,-0.15985 0.0764,0.19099 0.067,0.4192 -0.0209,0.50712 -0.0879,0.0879 -0.15046,-0.0684 -0.13898,-0.34727 z m 1.03746,-0.24884 c 0,-0.23199 0.11906,-0.34821 0.26459,-0.25828 0.14552,0.0899 0.26458,0.0304 0.26458,-0.13229 0,-0.1627 0.11906,-0.22223 0.26458,-0.13229 0.14552,0.0899 0.26459,0.0539 0.26459,-0.08 0,-0.13393 0.29548,-0.18702 0.65664,-0.11798 0.51734,0.0989 0.7103,-0.0157 0.90972,-0.54016 0.30091,-0.79147 0.81489,-1.17876 0.81489,-0.61403 0,0.61861 -1.18513,1.74904 -1.83367,1.74904 -0.32031,0 -0.81267,0.12325 -1.09413,0.27389 -0.40651,0.21755 -0.51179,0.18712 -0.51179,-0.14791 z m 5.50664,-0.57131 c 0.191005,-0.0764 0.419205,-0.067 0.507125,0.0209 0.0879,0.0879 -0.0684,0.15045 -0.34727,0.13896 -0.308235,-0.0127 -0.370915,-0.0754 -0.159855,-0.15985 z m 12.601735,-0.21977 c 0.28249,-0.21628 0.66945,-0.39324 0.85989,-0.39324 0.59002,0 0.38428,0.20016 -0.51358,0.49965 -0.78671,0.26242 -0.81619,0.25336 -0.34631,-0.10641 z m -21.875585,-0.0512 c 0.32911,-0.0633 0.80536,-0.0609 1.05833,0.005 0.25294,0.0662 -0.0164,0.11801 -0.59841,0.11507 -0.58208,-0.003 -0.78907,-0.0571 -0.45992,-0.12041 z m 1.65055,-0.0858 c 0,-0.14095 0.17859,-0.25628 0.39687,-0.25628 0.21828,0 0.39688,0.0468 0.39688,0.10399 0,0.0572 -0.1786,0.17251 -0.39688,0.25628 -0.21828,0.0838 -0.39687,0.037 -0.39687,-0.10399 z m 12.038535,0.008 c -0.0899,-0.14552 -0.0374,-0.26458 0.11668,-0.26458 0.15409,0 0.28019,0.11906 0.28019,0.26458 0,0.14552 -0.0525,0.26458 -0.11668,0.26458 -0.0642,0 -0.19026,-0.11906 -0.28019,-0.26458 z m -8.657615,-0.62564 c -0.25088,-0.25085 -0.51467,-0.30239 -0.75832,-0.14815 -0.2055,0.13009 -0.48141,0.23835 -0.61309,0.24057 -0.13171,0.002 0.46762,-0.45296 1.33186,-1.01154 1.5975,-1.03252 3.27175,-2.75608 3.96742,-4.08427 0.21151,-0.40383 1.046765,-1.76073 1.856125,-3.01533 1.10845,-1.71823 1.53207,-2.18992 1.71686,-1.9116 0.19232,0.28968 0.50091,0.0925 1.42851,-0.91273 0.65077,-0.70523 1.13247,-1.36433 1.07048,-1.46466 -0.062,-0.10033 0.10906,-0.18242 0.38015,-0.18242 0.38748,0 0.25006,0.25964 -0.64241,1.21375 -0.62441,0.66756 -1.46481,1.71165 -1.86753,2.32021 -0.41095,0.62098 -0.85746,1.02907 -1.01764,0.93007 -0.19635,-0.12136 -0.18534,-0.20975 0.0353,-0.2833 0.52639,-0.17546 0.8854,-1.03093 0.43267,-1.03093 -0.21042,0 -0.33022,0.0524 -0.26619,0.11638 0.1143,0.11432 -0.10798,0.43431 -0.92353,1.32948 -0.72485,0.79562 -1.34602,1.92862 -1.23487,2.25239 0.0632,0.18409 0.46194,-0.0619 0.96124,-0.5931 l 0.8532,-0.9077 -0.46453,0.97416 c -0.25551,0.53578 -0.59124,0.9599 -0.74613,0.94249 -0.88101,-0.0991 -1.261865,0.12701 -1.674905,0.99411 -0.42614,0.89463 -0.42757,0.98275 -0.0198,1.2401 0.39664,0.25045 0.37227,0.36749 -0.25389,1.21974 -0.38095,0.51849 -0.72112,0.98624 -0.75597,1.03945 -0.0349,0.0532 -0.4399,-0.0345 -0.90011,-0.19496 -0.76333,-0.2661 -0.80516,-0.25337 -0.47652,0.14502 0.326,0.3952 0.30314,0.40628 -0.24056,0.11658 -0.63881,-0.34042 -1.12162,-0.2039 -1.11495,0.31526 0.003,0.18934 0.10641,0.1567 0.26053,-0.0818 0.18638,-0.28839 0.2576,-0.3022 0.26054,-0.0505 0.003,0.19049 0.13856,0.26321 0.30295,0.1616 0.17819,-0.11012 0.25167,-0.043 0.1819,0.16629 -0.17423,0.52268 -0.63439,0.58957 -1.06863,0.15533 z m 3.07925,-2.41099 c -0.12576,-0.50107 -0.24392,-0.61467 -0.39129,-0.3762 -0.11613,0.18788 -0.0907,0.56658 0.0564,0.84155 0.3638,0.67976 0.55541,0.41346 0.33486,-0.46535 z m 9.414825,2.40462 c 0,-0.21623 0.40827,-0.44142 0.99218,-0.54723 2.47486,-0.44849 2.36048,-0.43784 1.78594,-0.16634 -0.36568,0.1728 -0.40656,0.25705 -0.13229,0.2727 0.35277,0.0201 0.35277,0.0511 0,0.27913 -0.21828,0.14107 -0.57547,0.24994 -0.79375,0.24194 -0.2617,-0.01 -0.21662,-0.092 0.13229,-0.24194 0.42286,-0.18171 0.44051,-0.23113 0.0878,-0.24599 -0.24276,-0.0102 -0.63971,0.0575 -0.8821,0.15052 -0.35152,0.1349 -0.3693,0.21437 -0.0878,0.39282 0.24215,0.15351 0.12457,0.22499 -0.3747,0.22777 -0.44641,0.002 -0.7276,-0.13796 -0.7276,-0.36338 z m -0.84336,-0.0779 c 0.191,-0.0764 0.4192,-0.067 0.50712,0.0209 0.0879,0.0879 -0.0684,0.15045 -0.34726,0.13896 -0.30824,-0.0127 -0.37092,-0.0754 -0.15986,-0.15985 z m -5.50664,-0.33911 c 0,-0.27915 0.0668,-0.29782 1.4552,-0.40673 0.43657,-0.0342 0.99007,-0.14555 1.23,-0.24734 0.23995,-0.10179 0.50681,-0.0709 0.59301,0.0685 0.17833,0.28852 -1.56512,0.68508 -1.95432,0.44452 -0.14004,-0.0865 -0.49522,-0.0286 -0.78925,0.12877 -0.36065,0.19302 -0.53464,0.197 -0.53464,0.0122 z m -19.314585,-0.2739 c -0.48366,-0.31255 -0.0659,-0.31255 0.66146,0 0.34891,0.14994 0.39399,0.23235 0.13229,0.24194 -0.21828,0.008 -0.57547,-0.10087 -0.79375,-0.24194 z m 6.09415,-0.24875 c 1.53276,-0.11019 3.043,-0.33743 3.35605,-0.50497 0.31303,-0.16754 0.72584,-0.29985 0.91732,-0.29403 0.19145,0.006 -0.009,0.20914 -0.44564,0.4518 -0.585,0.32517 -1.55919,0.45519 -3.70417,0.49438 l -2.91042,0.0532 z m -4.37436,-0.28041 c -0.67421,-0.28972 0.0214,-0.28972 0.92605,0 0.53173,0.17029 0.55768,0.21336 0.13229,0.21961 -0.29104,0.004 -0.76729,-0.0945 -1.05834,-0.21961 z m 21.298955,-0.0567 c 0,-0.11434 0.17156,-0.20789 0.38127,-0.20789 0.20968,0 0.43907,0.0935 0.50974,0.20789 0.0707,0.11434 -0.10091,0.20789 -0.38126,0.20789 -0.28035,0 -0.50975,-0.0935 -0.50975,-0.20789 z m 6.30039,0.14054 c 0.19101,-0.0764 0.41921,-0.067 0.50713,0.0209 0.0879,0.0879 -0.0684,0.15045 -0.34727,0.13896 -0.30824,-0.0127 -0.37092,-0.0754 -0.15986,-0.15985 z m -28.839575,-0.52917 c 0.191,-0.0764 0.41921,-0.067 0.50713,0.0209 0.0879,0.0879 -0.0684,0.15045 -0.34727,0.13896 -0.30824,-0.0127 -0.37092,-0.0754 -0.15986,-0.15985 z m 24.870825,-0.26459 c 0.19101,-0.0764 0.41921,-0.067 0.50713,0.0209 0.0879,0.0879 -0.0684,0.15045 -0.34727,0.13896 -0.30824,-0.0127 -0.37092,-0.0754 -0.15986,-0.15985 z m 8.51628,-0.0838 c -0.33917,-0.21919 -0.32954,-0.25707 0.0661,-0.26054 0.25467,-0.002 0.46303,0.11502 0.46303,0.26054 0,0.32269 -0.0299,0.32269 -0.52917,0 z m -6.44141,-0.59532 c 0.0674,-0.10914 0.32993,-0.19843 0.58327,-0.19843 0.25336,0 0.60351,-0.14288 0.77814,-0.3175 0.24693,-0.24695 0.3175,-0.21408 0.3175,0.1479 0,0.25598 -0.11906,0.39183 -0.26458,0.30189 -0.14553,-0.0899 -0.26459,-0.0672 -0.26459,0.0505 0,0.11773 -0.28628,0.21405 -0.63619,0.21405 -0.34991,0 -0.581,-0.0893 -0.51355,-0.19844 z m 12.57921,-0.0744 c 0.27033,-0.27032 1.27053,-0.35598 1.27053,-0.1088 0,0.13716 -0.3175,0.24939 -0.70556,0.24939 -0.38804,0 -0.64228,-0.0633 -0.56497,-0.14059 z m 1.7997,-0.12256 c 0.47961,-0.31168 1.05833,-0.34402 1.05833,-0.0591 0,0.11378 -0.32742,0.23167 -0.7276,0.26197 -0.55714,0.0422 -0.63461,-0.005 -0.33073,-0.20283 z m -40.866825,-0.24773 c -0.0837,-0.13547 -0.0511,-0.30883 0.0726,-0.38524 0.12364,-0.0764 0.22481,0.0344 0.22481,0.2463 0,0.44613 -0.0834,0.48511 -0.29739,0.13894 z m 16.43499,-0.40078 c -0.0868,-0.22619 -0.0354,-0.41126 0.114085,-0.41126 0.14954,0 0.18693,-0.13746 0.0831,-0.30546 -0.11319,-0.18313 -0.073,-0.23388 0.10041,-0.12673 0.15906,0.0983 0.41198,-0.0321 0.562,-0.28985 0.15004,-0.25772 0.27643,-0.38216 0.28085,-0.27654 0.004,0.10563 -0.21487,0.55858 -0.48731,1.00657 -0.38264,0.62921 -0.53123,0.72096 -0.653145,0.40327 z m -3.99386,-0.48881 c 0.0993,-0.26094 0.24731,-0.40778 0.32877,-0.32632 0.0815,0.0815 1.6e-4,0.29495 -0.18065,0.47443 -0.26131,0.25936 -0.29171,0.22897 -0.14812,-0.14811 z m 18.050375,-0.21741 c -0.0933,-0.24311 0.25538,-0.72815 0.93141,-1.29572 0.59428,-0.49894 0.98118,-0.74642 0.85977,-0.54996 -0.15267,0.24702 -0.1074,0.31602 0.14679,0.22367 0.20217,-0.0735 0.34732,-0.23893 0.32258,-0.36773 -0.0249,-0.1288 0.27289,-0.59481 0.66146,-1.03558 0.38854,-0.44077 0.59502,-0.63885 0.45886,-0.44018 -0.16457,0.24012 -0.13247,0.43234 0.0958,0.5734 0.24196,0.14954 -0.0923,0.51459 -1.1325,1.2366 -0.81172,0.56343 -1.42407,1.17325 -1.36083,1.35515 0.0632,0.1819 0,0.33073 -0.14129,0.33073 -0.14094,0 -0.26464,-0.14883 -0.27487,-0.33073 -0.0103,-0.1819 -0.10848,-0.10131 -0.21831,0.1791 -0.15851,0.40458 -0.23051,0.42961 -0.34883,0.12125 z m 3.00075,-2.54931 c 0.32908,-0.41964 0.31975,-0.429 -0.0999,-0.0999 -0.25466,0.19972 -0.46302,0.40808 -0.46302,0.46302 0,0.21776 0.21727,0.0776 0.56293,-0.36313 z m -7.04522,1.52136 c 0.26339,-0.29104 0.53842,-0.52917 0.61118,-0.52917 0.0728,0 -0.0832,0.23813 -0.3466,0.52917 -0.26339,0.29104 -0.53843,0.52916 -0.61119,0.52916 -0.0728,0 0.0832,-0.23812 0.34661,-0.52916 z m 9.60768,0.0838 c 0.191,-0.0764 0.41921,-0.067 0.50713,0.0209 0.0879,0.0879 -0.0684,0.15045 -0.34727,0.13896 -0.30824,-0.0127 -0.37092,-0.0754 -0.15986,-0.15985 z m 0.30774,-1.61487 c 0.82655,-0.93902 1.55355,-1.54134 1.76326,-1.46087 0.19624,0.0753 0.28974,0.24546 0.20778,0.3781 -0.082,0.13265 -0.27829,0.16131 -0.43625,0.0637 -0.15796,-0.0976 -0.21349,-0.0582 -0.12343,0.0875 0.19688,0.31855 -1.23182,1.75376 -1.48939,1.49618 -0.0991,-0.0991 -0.1801,-0.0454 -0.1801,0.11928 0,0.16466 -0.25837,0.43765 -0.57415,0.60665 -0.32247,0.17258 0.0424,-0.39314 0.83228,-1.29052 z m 0.66791,-0.0565 c 0.26339,-0.29104 0.41936,-0.52917 0.3466,-0.52917 -0.0728,0 -0.34779,0.23813 -0.61118,0.52917 -0.2634,0.29104 -0.41937,0.52916 -0.34661,0.52916 0.0728,0 0.3478,-0.23812 0.61119,-0.52916 z m -9.44232,0.87759 c 0.19101,-0.0764 0.41921,-0.067 0.50713,0.0209 0.0879,0.0879 -0.0684,0.15045 -0.34727,0.13896 -0.30824,-0.0127 -0.37092,-0.0754 -0.15986,-0.15985 z m 13.03624,-0.44365 c 0.0606,-0.0524 0.76509,-0.1619 1.56546,-0.24341 0.90558,-0.0922 1.25534,-0.0633 0.92604,0.0766 -0.50705,0.21543 -2.71926,0.36352 -2.4915,0.16679 z m -5.6705,-1.84799 c 0.41452,-0.48669 0.79737,-0.84978 0.85079,-0.80687 0.14687,0.11798 -1.12218,1.6603 -1.37996,1.67711 -0.12348,0.008 0.11465,-0.38356 0.52917,-0.87024 z m -0.43696,-0.42242 c 0,-0.13693 0.11769,-0.32171 0.26154,-0.41062 0.14999,-0.0927 0.19436,0.0135 0.10401,0.24897 -0.1759,0.45837 -0.36555,0.54223 -0.36555,0.16165 z m 3.94377,-0.7627 c 0.16082,-0.3005 0.4227,-0.62689 0.58195,-0.72532 0.20749,-0.12822 0.20667,-0.0241 -0.003,0.36741 -0.16081,0.30049 -0.4227,0.62689 -0.58195,0.72531 -0.20748,0.12822 -0.20666,0.0241 0.003,-0.3674 z m -13.7995,0.0427 c 0.1819,-0.0734 0.47956,-0.0734 0.66146,0 0.1819,0.0734 0.0331,0.13345 -0.33073,0.13345 -0.3638,0 -0.51263,-0.06 -0.33073,-0.13345 z m 10.6245,-0.57186 c 0.16082,-0.3005 0.4227,-0.62689 0.58195,-0.72531 0.20749,-0.12823 0.20667,-0.024 -0.003,0.3674 -0.16081,0.3005 -0.4227,0.62689 -0.58195,0.72531 -0.20748,0.12823 -0.20666,0.0241 0.003,-0.3674 z m 4.16264,0.0856 c 0.0838,-0.21828 0.25487,-0.39688 0.38026,-0.39688 0.12538,0 0.15944,0.1786 0.0757,0.39688 -0.0838,0.21828 -0.25487,0.39687 -0.38026,0.39687 -0.12539,0 -0.15944,-0.17859 -0.0757,-0.39687 z m -28.479325,-0.0756 c 0,-0.11433 0.2294,-0.20788 0.50975,-0.20788 0.28035,0 0.45191,0.0935 0.38126,0.20788 -0.0707,0.11434 -0.30006,0.20789 -0.50974,0.20789 -0.20971,0 -0.38127,-0.0935 -0.38127,-0.20789 z m 25.135415,-0.15659 c 0,-0.0549 0.18132,-0.25037 0.40293,-0.4343 0.3369,-0.2796 0.37563,-0.26324 0.23628,0.0999 -0.14232,0.37087 -0.63921,0.63082 -0.63921,0.3344 z m -22.075695,-1.03599 c 0.0994,-0.26094 0.24731,-0.40778 0.32877,-0.32632 0.0815,0.0815 1.6e-4,0.29495 -0.18065,0.47443 -0.26131,0.25936 -0.29171,0.22897 -0.14812,-0.14811 z m 22.106415,-0.0547 c 0.0148,-0.46205 0.98798,-2.39902 0.99689,-1.98437 0.005,0.21828 -0.2196,0.81359 -0.49844,1.32291 -0.27885,0.50933 -0.50316,0.80698 -0.49845,0.66146 z m 0.76303,0.006 c 0,-0.0693 0.23767,-0.51573 0.52819,-0.99219 0.62148,-1.01935 0.70831,-0.78768 0.12647,0.33747 -0.36298,0.70192 -0.65466,0.99363 -0.65466,0.65472 z m -9.83774,-0.72553 c 0.14108,-0.14109 0.47755,-0.20969 0.74766,-0.15244 0.36375,0.0771 0.29721,0.14364 -0.25654,0.25655 -0.48281,0.0984 -0.6568,0.0616 -0.49112,-0.10411 z m -7.75705,-0.95471 c 0.14552,-0.14084 0.80036,-0.32538 1.45521,-0.41009 0.78874,-0.10203 0.96737,-0.0811 0.52916,0.0621 -1.39292,0.45516 -2.25049,0.60554 -1.98437,0.34797 z m 3.35573,-0.747 c 0.0641,-0.37405 -0.0566,-0.47004 -0.51146,-0.4068 -0.32742,0.0455 -0.59529,-0.014 -0.59526,-0.13229 2e-5,-0.11829 -0.51496,-0.20576 -1.14446,-0.19437 -1.73905,0.0314 -5.149685,-0.37686 -6.921785,-0.82863 -1.43891,-0.36683 -2.96069,-1.09144 -2.73854,-1.30396 0.049,-0.0469 1.16067,0.28243 2.47036,0.7318 2.2017,0.75544 2.66052,0.81832 6.085415,0.83398 2.03729,0.009 4.5376,-0.068 5.55625,-0.17194 1.49775,-0.15275 1.67492,-0.13553 0.92604,0.09 -0.50932,0.15338 -1.06328,0.39218 -1.23105,0.53065 -0.20035,0.1654 -0.35203,0.13453 -0.44212,-0.09 -0.11097,-0.27659 -0.14113,-0.27692 -0.15804,-0.002 -0.0156,0.25354 -0.15102,0.27038 -0.5325,0.0662 -0.45016,-0.24092 -0.4976,-0.1964 -0.39478,0.37065 0.0643,0.35445 -0.0111,0.72355 -0.16751,0.82022 -0.17193,0.10626 -0.25125,-0.0178 -0.20056,-0.31381 z m 1.98472,-0.33114 c 0.0704,-0.26901 0.26676,-0.47945 0.43643,-0.46765 0.64135,0.0446 2.29291,-0.42088 2.29291,-0.64627 0,-0.12933 -0.14883,-0.23696 -0.33073,-0.23919 -0.61547,-0.008 0.43693,-0.51684 1.07672,-0.52107 0.92268,-0.006 4.47556,-1.53619 6.20472,-2.67216 0.83971,-0.55165 1.45777,-0.89138 1.37345,-0.75495 -0.25633,0.41476 0.58317,0.27663 0.94128,-0.15487 0.28356,-0.34167 0.25832,-0.37606 -0.16605,-0.22617 -0.29133,0.1029 -0.008,-0.33678 0.67913,-1.05228 1.29416,-1.34842 1.38925,-1.41634 1.16507,-0.83216 -0.0838,0.21828 -0.22998,0.39688 -0.32491,0.39688 -0.095,0 -0.33131,0.25408 -0.52525,0.56462 -0.28996,0.4643 -0.2911,0.60265 -0.006,0.77862 0.5198,0.32126 1.11188,-0.25882 0.73173,-0.71689 -0.23183,-0.27932 -0.20743,-0.36177 0.10697,-0.36177 0.22397,0 0.45482,0.14281 0.513,0.31735 0.065,0.19506 0.17431,0.13879 0.28361,-0.14603 0.10634,-0.27707 0.0727,-0.39839 -0.0837,-0.30174 -0.14385,0.0889 -0.26154,0.0356 -0.26154,-0.11855 0,-0.15411 0.0893,-0.28034 0.19844,-0.28052 0.3589,-5.3e-4 1.64816,-1.23988 1.47256,-1.41549 -0.0944,-0.0944 -0.0408,-0.17169 0.11914,-0.17169 0.49102,0 0.64596,1.01485 0.31372,2.05468 -0.42291,1.32354 -0.70795,1.5879 -0.64931,0.60219 0.0566,-0.95201 -0.135,-1.00717 -0.81823,-0.23553 -0.90532,1.02249 -5.83864,4.11291 -7.69048,4.81762 -0.99515,0.3787 -2.70235,0.88572 -3.79376,1.12671 -1.0914,0.24098 -2.29984,0.59729 -2.68539,0.79179 -0.64031,0.32301 -0.68995,0.31128 -0.57311,-0.13548 z m 4.05226,-1.20116 c 0,-0.0642 -0.11907,-0.19026 -0.26459,-0.2802 -0.14552,-0.0899 -0.26458,-0.0374 -0.26458,0.11667 0,0.15411 0.11906,0.2802 0.26458,0.2802 0.14552,0 0.26459,-0.0525 0.26459,-0.11667 z m 2.23173,-0.67053 c 0.37327,-0.14192 0.67868,-0.3763 0.67868,-0.52086 0,-0.29719 -0.66998,-0.10008 -1.44793,0.42599 -0.61121,0.41331 -0.2013,0.46387 0.76925,0.0949 z m 4.29466,-2.27788 c 0,-0.45981 -0.17232,-0.46119 -0.77171,-0.006 -0.70908,0.53827 -0.6001,1.00571 0.15433,0.66196 0.33957,-0.1547 0.61738,-0.44981 0.61738,-0.65578 z m 2.8915,3.69677 c -0.15774,-0.41104 -0.22331,-0.42547 -0.43225,-0.0951 -0.43503,0.68791 -0.29072,-0.31079 0.15402,-1.06575 l 0.38965,-0.66146 -0.15589,0.69874 c -0.0863,0.38662 -0.0281,0.7777 0.13014,0.87551 0.1573,0.0972 0.28602,0.0308 0.28602,-0.14753 0,-0.17836 0.0704,-0.25384 0.15655,-0.16775 0.0861,0.0861 0.0443,0.3571 -0.0929,0.60223 -0.23016,0.41124 -0.26379,0.40824 -0.43537,-0.0389 z m 4.72165,-0.92162 c -0.12142,-0.19647 -0.0876,-0.25251 0.0872,-0.14446 0.15711,0.0971 0.68152,-0.23584 1.16536,-0.73985 0.8228,-0.85708 4.39584,-3.08183 4.04947,-2.52141 -0.22283,0.36058 0.0417,0.31923 0.94446,-0.1476 0.42931,-0.22202 0.7806,-0.35148 0.7806,-0.28769 0,0.0638 -1.27992,0.842 -2.84427,1.72936 -1.56435,0.88735 -3.10081,1.7977 -3.41437,2.023 -0.43397,0.31183 -0.61746,0.333 -0.76848,0.0887 z m -4.0771,-0.16064 c -0.004,-0.17505 0.13378,-0.63006 0.3074,-1.01113 0.2499,-0.54844 0.24482,-0.73666 -0.0243,-0.903 -0.23497,-0.14523 -0.12816,-0.25064 0.34576,-0.34123 0.37719,-0.0721 0.68472,-0.11785 0.68339,-0.10165 -0.0228,0.27585 -1.3064,2.58168 -1.31222,2.35701 z m 4.67363,-1.26589 c 0.24201,-0.5075 0.47874,-0.884 0.52607,-0.83666 0.16455,0.16453 -0.49871,1.75937 -0.73165,1.75937 -0.12893,0 -0.0364,-0.41522 0.20558,-0.92271 z m -33.546465,-0.8827 c 0.16082,-0.3005 0.4227,-0.6269 0.58195,-0.72532 0.20749,-0.12822 0.20667,-0.0241 -0.003,0.3674 -0.16081,0.3005 -0.4227,0.62689 -0.58195,0.72532 -0.20748,0.12822 -0.20666,0.0241 0.003,-0.3674 z m 10.343725,-0.22426 c -3.66731,-0.80839 -4.068835,-0.97414 -2.24896,-0.92837 0.43662,0.011 0.44818,-0.0102 0.0662,-0.12122 -0.77629,-0.22556 -0.53375,-0.70273 0.26458,-0.52055 3.04771,0.69551 5.75691,0.94589 7.29903,0.67456 2.08116,-0.36617 4.6087,-1.46386 5.90762,-2.56564 1.23539,-1.04788 4.05741,-2.75581 4.05741,-2.45561 0,0.11934 -0.20836,0.29725 -0.46302,0.39536 -0.44045,0.1697 -0.44034,0.19112 0.003,0.43951 0.55864,0.31361 1.07989,0.0544 0.88931,-0.44228 -0.0928,-0.24173 0,-0.30377 0.29078,-0.19254 0.63005,0.24177 -1.32268,1.8802 -5.05158,4.23849 -2.98556,1.88817 -6.81943,2.40278 -11.01342,1.47829 z m 12.90833,-3.22154 c 0.0917,-0.2782 0.003,-0.29476 -0.40751,-0.0754 -0.28874,0.15453 -0.60018,0.20578 -0.69207,0.11388 -0.0919,-0.0919 -0.16708,-0.0199 -0.16708,0.16 0,0.43524 1.11537,0.26051 1.26666,-0.19843 z m 1.39806,-0.8342 c 0.13512,0 0.24569,-0.24805 0.24569,-0.55122 0,-0.32926 -0.13316,-0.50238 -0.33073,-0.42995 -0.1819,0.0667 -0.30096,0.25522 -0.26458,0.41893 0.0364,0.16371 -0.23151,0.29765 -0.59531,0.29765 -0.71427,0 -0.83757,0.24723 -0.36097,0.72383 0.22426,0.22426 0.39684,0.20413 0.68035,-0.0794 0.20894,-0.20892 0.49043,-0.37986 0.62555,-0.37986 z m 8.20179,3.52134 c -0.0103,-0.31883 0.10046,-0.65328 0.24599,-0.74322 0.31294,-0.19341 0.31294,0.0655 0,0.79375 -0.21924,0.51018 -0.22808,0.50837 -0.24599,-0.0505 z m -28.593595,-0.18166 c 0,-0.0549 0.15875,-0.23164 0.35277,-0.39267 0.26705,-0.22161 0.3528,-0.19733 0.3528,0.0999 0,0.21597 -0.15875,0.39267 -0.3528,0.39267 -0.19402,0 -0.35277,-0.045 -0.35277,-0.0999 z m 1.41835,-0.10259 c -0.21838,-0.14082 -0.20015,-0.2884 0.0661,-0.53555 0.30271,-0.28094 0.36759,-0.26651 0.36759,0.0818 0,0.2326 0.11906,0.34933 0.26458,0.2594 0.14552,-0.0899 0.264575,-0.0374 0.264575,0.11667 0,0.32162 -0.519605,0.36356 -0.962895,0.0777 z m 24.267105,-0.21643 c 0.0127,-0.30823 0.0754,-0.37092 0.15986,-0.15986 0.0764,0.191 0.0671,0.41921 -0.0209,0.50712 -0.0879,0.0879 -0.15047,-0.0683 -0.13899,-0.34726 z m 4.23333,0 c 0.0127,-0.30823 0.0754,-0.37092 0.15987,-0.15986 0.0764,0.191 0.067,0.41921 -0.0209,0.50712 -0.0879,0.0879 -0.15047,-0.0683 -0.13898,-0.34726 z M 98.433005,179.6156 c 0,-0.39292 1.33128,-2.34899 1.906825,-2.80171 0.37888,-0.29802 1.20615,-1.16403 1.8384,-1.92446 l 1.14956,-1.3826 -0.92604,0.63056 c -0.88103,0.59992 -0.8682,0.56967 0.26459,-0.62265 0.65484,-0.68926 1.42875,-1.37768 1.71979,-1.52982 0.43479,-0.22728 0.47019,-0.21421 0.19843,0.0733 -0.1819,0.19244 -0.33072,0.45216 -0.33072,0.57717 0,0.125 0.14882,0.14458 0.33072,0.0435 0.18191,-0.10108 -0.6338,0.81463 -1.81266,2.03491 -1.17887,1.22027 -2.4204,2.6354 -2.75896,3.14472 -0.597165,0.89834 -1.579935,1.99131 -1.579935,1.75711 z m 5.395835,-6.40942 c 0.0989,-0.25768 0.0397,-0.37864 -0.1536,-0.3142 -0.39552,0.13184 -0.61327,0.73318 -0.2655,0.73318 0.14208,0 0.33067,-0.18854 0.4191,-0.41898 z m 21.85625,5.84294 c 0.34176,-0.3638 0.68093,-0.66146 0.75369,-0.66146 0.0728,0 -0.14735,0.29766 -0.48911,0.66146 -0.34176,0.3638 -0.68093,0.66146 -0.75369,0.66146 -0.0728,0 0.14734,-0.29766 0.48911,-0.66146 z m 1.85208,-0.24897 c 0,-0.20969 0.10432,-0.44574 0.23185,-0.52455 0.12751,-0.0788 0.22903,-1.00857 0.22561,-2.06613 -0.003,-1.05757 0.088,-2.21957 0.20318,-2.58224 0.1796,-0.56541 0.15319,-0.61269 -0.18532,-0.33177 -0.21709,0.18019 -0.40526,0.6975 -0.41809,1.14958 -0.013,0.45208 -0.10708,0.89904 -0.20934,0.99323 -0.10229,0.0942 -0.1097,-0.50619 -0.0164,-1.3342 0.2215,-1.9676 -0.18325,-2.17983 -0.91467,-0.4796 -0.71149,1.6539 -0.87588,1.59055 -0.37854,-0.1459 0.20611,-0.71974 0.47054,-1.68846 0.58756,-2.15272 0.20016,-0.79405 0.24416,-0.82028 0.74195,-0.44249 0.49725,0.37737 0.49905,0.39637 0.03,0.31493 -0.30199,-0.0524 -0.52594,0.0831 -0.56705,0.34328 -0.0475,0.3006 0.1316,0.42994 0.59536,0.42994 0.36481,0 0.77211,0.16372 0.90512,0.36381 0.22981,0.34568 0.0875,4.56909 -0.20617,6.11849 -0.14263,0.75264 -0.62502,1.01994 -0.62502,0.34634 z m -32.014575,-0.0917 c 0,-0.11464 0.36277,-0.62066 0.80618,-1.12448 l 0.80616,-0.91605 -0.70903,1.12448 c -0.703,1.11489 -0.90331,1.31803 -0.90331,0.91605 z m -15.93416,-0.77939 c 0.62232,-0.0559 1.57482,-0.0551 2.11666,0.002 0.54187,0.0568 0.0327,0.10258 -1.13146,0.10162 -1.16417,-0.001 -1.6075,-0.0475 -0.9852,-0.10337 z m 11.17166,-0.1745 c 0,-0.0572 0.17859,-0.17252 0.39687,-0.25628 0.21828,-0.0838 0.39688,-0.037 0.39688,0.10398 0,0.14096 -0.1786,0.25628 -0.39688,0.25628 -0.21828,0 -0.39687,-0.0468 -0.39687,-0.10398 z m 20.264245,-0.12238 c -0.0769,-0.1245 0.15414,-0.17015 0.51355,-0.10145 0.35939,0.0687 0.65345,0.17057 0.65345,0.22637 0,0.20472 -1.03151,0.0943 -1.167,-0.12492 z m 2.17572,0.0456 c 0.191,-0.0764 0.41921,-0.067 0.50713,0.0209 0.0879,0.0879 -0.0684,0.15045 -0.34727,0.13896 -0.30824,-0.0127 -0.37092,-0.0754 -0.15986,-0.15985 z m 13.87586,-0.28432 c 0.0209,-0.27779 0.1928,-0.50508 0.38193,-0.50508 0.45296,0 0.43653,0.2993 -0.038,0.69316 -0.3111,0.25817 -0.37489,0.22327 -0.34391,-0.18808 z m -33.495135,-0.21195 c 0.099,-0.25807 0.47456,-0.3736 1.11183,-0.34204 0.52925,0.0262 1.20039,-0.039 1.49143,-0.14494 0.29105,-0.10593 0.19892,-10e-4 -0.2047,0.23285 -0.40365,0.234 -0.84014,0.35979 -0.96999,0.27953 -0.12986,-0.0803 -0.53806,-0.0311 -0.9071,0.10919 -0.547,0.20797 -0.64336,0.1831 -0.52147,-0.13459 z m 41.364715,-0.0416 c 0.21828,-0.0812 0.7243,-0.31302 1.12448,-0.51508 0.40018,-0.20205 0.72761,-0.30783 0.72761,-0.23507 0,0.20768 -1.52263,0.94197 -1.90508,0.91874 -0.23101,-0.014 -0.2136,-0.0694 0.053,-0.16859 z m -12.69158,-0.22297 c 0.004,-0.13696 0.18322,-0.48013 0.39687,-0.7626 0.21365,-0.28248 0.38468,-0.40154 0.38005,-0.26459 -0.005,0.13696 -0.18323,0.48013 -0.39688,0.7626 -0.21365,0.28248 -0.38467,0.40154 -0.38004,0.26459 z m 4.75408,-0.6615 c 0,-0.15411 0.11906,-0.20661 0.26459,-0.11668 0.14552,0.0899 0.26458,0.21603 0.26458,0.2802 0,0.0642 -0.11906,0.11668 -0.26458,0.11668 -0.14553,0 -0.26459,-0.12609 -0.26459,-0.2802 z m 9.26042,-0.34887 c 0,-0.0549 0.20836,-0.2633 0.46302,-0.46302 0.41965,-0.3291 0.42899,-0.31975 0.0999,0.0999 -0.34566,0.44073 -0.56293,0.58089 -0.56293,0.36312 z m -13.22917,-0.67823 c 0,-0.13694 0.11769,-0.32172 0.26154,-0.41062 0.14999,-0.0927 0.19437,0.0135 0.10401,0.24897 -0.17589,0.45837 -0.36555,0.54223 -0.36555,0.16165 z m -3.13356,-0.72118 c 0.68029,-0.72415 1.04034,-0.84499 0.39587,-0.13286 -0.24115,0.26647 -0.37868,0.54428 -0.3056,0.61736 0.0731,0.0731 -0.0478,0.13287 -0.26868,0.13287 -0.30808,0 -0.26652,-0.14376 0.17841,-0.61737 z m -21.472685,0.0628 c 0,-0.11737 0.36452,-0.62858 0.81008,-1.13601 0.961885,-1.09554 0.872115,-1.33101 -0.2802,-0.73512 -0.46323,0.23954 -1.01626,0.36875 -1.22896,0.28713 -0.2127,-0.0816 -0.31999,-0.0404 -0.23839,0.0916 0.16939,0.27406 -0.63825,0.47016 -2.86041,0.69453 -1.03748,0.10476 -1.49299,0.0659 -1.37954,-0.11768 0.0932,-0.15073 0.69443,-0.26353 1.33612,-0.25065 0.74261,0.0149 1.32056,-0.1304 1.58988,-0.39973 0.39251,-0.3925 2.20626,-1.02495 2.69751,-0.94061 0.50633,0.0869 0.87683,-0.0457 0.87683,-0.31401 0,-0.15857 0.256375,-0.49592 0.569725,-0.74965 0.56269,-0.45564 0.55533,-0.46169 -0.595315,-0.48993 -0.64076,-0.0157 -1.40316,-0.086 -1.6942,-0.15614 -0.29104,-0.0702 -0.61847,-0.13667 -0.72761,-0.1478 -0.10914,-0.0111 -0.19843,-0.12971 -0.19843,-0.2635 0,-0.14249 0.411,-0.12975 0.99218,0.0307 0.54571,0.1507 1.6768,0.20246 2.513535,0.11502 0.98185,-0.1026 1.52136,-0.061 1.52136,0.11717 0,0.15188 -0.14883,0.19212 -0.33073,0.0894 -0.24024,-0.13563 -0.23604,-0.0856 0.0153,0.18282 0.29379,0.3137 0.67365,0.19858 2.51354,-0.76172 2.28348,-1.19183 2.23753,-1.13493 -0.53605,0.6638 -0.94988,0.61602 -1.84991,1.0441 -2.00006,0.95131 -0.15015,-0.0928 -0.1963,-0.0446 -0.10256,0.10708 0.0938,0.1517 -0.37586,0.7235 -1.04362,1.27068 -0.667745,0.54718 -1.440435,1.23781 -1.717085,1.53475 -0.27662,0.29694 -0.50297,0.44386 -0.50297,0.32649 z m 2.910415,-2.92909 c 0,-0.21829 -0.11533,-0.39688 -0.25628,-0.39688 -0.14097,0 -0.18774,0.17859 -0.10398,0.39688 0.0838,0.21828 0.19907,0.39687 0.25628,0.39687 0.0572,0 0.10398,-0.17859 0.10398,-0.39687 z m 30.82396,2.24895 c -0.0899,-0.14552 -0.0374,-0.26458 0.11668,-0.26458 0.15409,0 0.28019,0.11906 0.28019,0.26458 0,0.14552 -0.0525,0.26459 -0.11668,0.26459 -0.0642,0 -0.19026,-0.11907 -0.28019,-0.26459 z m -43.193225,-0.56059 c -0.47294,-0.13656 -0.8599,-0.31387 -0.8599,-0.39404 0,-0.21142 1.6741,0.1736 1.97115,0.45334 0.30771,0.28978 0.0501,0.27604 -1.11125,-0.0593 z m 42.002595,-0.59764 c 0,-0.0549 0.20836,-0.2633 0.46302,-0.46302 0.41966,-0.3291 0.429,-0.31975 0.0999,0.0999 -0.34565,0.44073 -0.56293,0.58089 -0.56293,0.36312 z m 1.5875,-0.004 c 0,-0.0572 0.18479,-0.17489 0.41061,-0.26155 0.23548,-0.0904 0.34168,-0.046 0.24897,0.10398 -0.15536,0.25141 -0.65958,0.37186 -0.65958,0.15757 z m -26.98961,-0.6501 c 0.36263,-0.29448 0.66029,-0.72729 0.66145,-0.9618 0,-0.2348 0.62622,-0.78707 1.39118,-1.22917 0.76399,-0.44154 1.38907,-0.69199 1.38907,-0.55655 0,0.13543 -0.47625,0.461 -1.05834,0.72348 -0.58208,0.26248 -1.05833,0.58525 -1.05833,0.71726 0,0.132 -0.11906,0.16643 -0.26458,0.0765 -0.14553,-0.0899 -0.26459,-0.0374 -0.26459,0.11667 0,0.45354 0.41349,0.33025 1.81555,-0.54131 0.9363,-0.58205 1.28121,-0.94839 1.18324,-1.25677 -0.11099,-0.34939 -0.0864,-0.3624 0.12454,-0.066 0.34637,0.48661 1.06135,0.19213 1.36416,-0.56186 0.13283,-0.33065 0.24903,-0.50769 0.25824,-0.39343 0.009,0.11426 0.23148,0.0928 0.49387,-0.0476 0.36121,-0.1933 0.55102,-0.13699 0.78131,0.23175 0.2426,0.38847 0.22196,0.51863 -0.10189,0.64291 -0.58401,0.22411 -0.62807,0.20094 -0.45844,-0.24106 0.0838,-0.21828 0.0204,-0.39687 -0.1406,-0.39687 -0.16111,0 -0.29289,0.11404 -0.29289,0.25343 0,0.13938 -0.56555,0.57475 -1.25678,0.96748 -0.69122,0.39273 -1.97114,1.15044 -2.84427,1.6838 -2.09719,1.2811 -2.51978,1.48704 -1.7219,0.83912 z m 28.7094,-0.0397 c 0.0899,-0.14552 0.21604,-0.26458 0.2802,-0.26458 0.0642,0 0.11668,0.11906 0.11668,0.26458 0,0.14552 -0.1261,0.26458 -0.2802,0.26458 -0.15412,0 -0.20661,-0.11906 -0.11668,-0.26458 z m -5.9432,-0.19844 c 0.0201,-0.39929 1.77252,-2.24496 1.91413,-2.01585 0.0803,0.12999 -0.26178,0.68138 -0.76026,1.22532 -0.90135,0.98355 -1.17284,1.16954 -1.15387,0.79053 z m 4.62029,-0.0661 c -0.43138,-0.18537 -0.44649,-0.23083 -0.0818,-0.24599 0.24606,-0.0102 0.52099,0.10047 0.61092,0.24599 0.18804,0.30424 0.17884,0.30424 -0.52916,0 z m 4.59644,-0.19844 c -0.32908,-0.41965 -0.31974,-0.429 0.0999,-0.0999 0.25466,0.19972 0.46302,0.40808 0.46302,0.46302 0,0.21777 -0.21727,0.0776 -0.56293,-0.36312 z m -9.49983,-0.59531 c -0.0298,-0.21828 -0.0352,-0.5438 -0.0122,-0.72338 0.0262,-0.20392 -0.12732,-0.26154 -0.40894,-0.15348 -0.34034,0.13061 -0.39537,0.0809 -0.22442,-0.20266 0.19333,-0.32068 0.16094,-0.32253 -0.22117,-0.0126 -0.32737,0.26554 -0.44767,0.27694 -0.44767,0.0424 0,-0.1764 0.25638,-0.52832 0.56972,-0.78205 0.46403,-0.37574 0.48856,-0.46134 0.13229,-0.46134 -0.24058,0 -0.43743,0.10625 -0.43743,0.2361 0,0.12986 -0.11906,0.16252 -0.26458,0.0726 -0.14553,-0.0899 -0.26459,-0.40264 -0.26459,-0.6949 0,-0.40113 0.12287,-0.49238 0.50128,-0.37228 0.29848,0.0947 0.68281,-0.0224 0.94994,-0.28953 0.42177,-0.42179 0.44428,-0.41837 0.37594,0.0572 -0.04,0.27819 0.009,0.86299 0.10912,1.29955 0.10001,0.43656 0.0727,1.15094 -0.0607,1.5875 -0.13343,0.43656 -0.26691,0.61516 -0.29665,0.39688 z m -5.4405,-0.55732 c -0.65431,-0.72349 -2.12556,-1.4673 -3.3606,-1.699 -1.00905,-0.1893 -1.22738,-0.46826 -0.64916,-0.82948 0.54271,-0.33904 0.99219,-0.32889 0.99219,0.0224 0,0.18115 0.14883,0.34774 0.33073,0.37019 0.1819,0.0225 0.62838,0.0721 0.99219,0.11025 0.3638,0.0382 0.86584,0.30754 1.11566,0.59858 0.33981,0.39587 0.45644,0.43103 0.46302,0.13956 0.006,-0.25814 0.15182,-0.18541 0.43268,0.21555 0.23312,0.33283 0.35218,0.67682 0.26458,0.76443 -0.0876,0.0876 -0.15928,0.0204 -0.15928,-0.1494 0,-0.16978 -0.20836,-0.30686 -0.46302,-0.30463 -0.26146,0.002 -0.34785,0.0887 -0.19844,0.19843 0.35785,0.26292 1.02153,1.12043 0.86715,1.12043 -0.068,0 -0.35049,-0.25079 -0.6277,-0.55732 z m -20.00051,-0.68176 c 0.191,-0.0764 0.4192,-0.067 0.50712,0.0209 0.0879,0.0879 -0.0684,0.15045 -0.34726,0.13896 -0.30824,-0.0127 -0.37092,-0.0754 -0.15986,-0.15985 z m -24.688935,-0.87759 c 0.2634,-0.29104 0.53843,-0.52917 0.61119,-0.52917 0.0728,0 -0.0832,0.23813 -0.3466,0.52917 -0.2634,0.29104 -0.53843,0.52917 -0.61119,0.52917 -0.0728,0 0.0832,-0.23813 0.3466,-0.52917 z m 17.19792,0.14185 c -0.43656,-0.1999 -0.60814,-0.37312 -0.38129,-0.38494 0.22683,-0.0118 0.64355,0.15331 0.92604,0.36697 0.63786,0.48246 0.48096,0.48763 -0.54475,0.018 z m 8.863535,0.0188 c 0,-0.0572 0.18479,-0.17489 0.41061,-0.26156 0.23548,-0.0904 0.34168,-0.046 0.24897,0.10399 -0.15536,0.25141 -0.65958,0.37185 -0.65958,0.15757 z m 20.2274,-0.13567 c -0.42352,-0.40381 -2.23187,-1.34786 -2.58186,-1.34786 -0.308,0 -1.24137,-0.90082 -1.24137,-1.1981 0,-0.26793 2.53841,1.17918 3.43958,1.96086 0.50932,0.44178 0.86056,0.80808 0.78052,0.81399 -0.08,0.006 -0.25863,-0.0971 -0.39687,-0.22889 z m -19.16906,-0.41987 c 0,-0.17924 2.1491,-1.24833 2.2688,-1.12864 0.0554,0.0555 -0.43233,0.35988 -1.08397,0.67648 -0.65167,0.3166 -1.18483,0.52007 -1.18483,0.45216 z m 8.20208,-0.11475 c 0.21828,-0.15178 0.60523,-0.27779 0.85989,-0.28002 0.25467,-0.002 0.46303,-0.18264 0.46303,-0.40092 0,-0.37993 0.36041,-0.53349 0.92604,-0.39456 0.14552,0.0357 0.40817,0.0697 0.58367,0.0754 0.1755,0.006 0.26286,0.10144 0.19412,0.21265 -0.18166,0.29394 0.36166,0.5662 0.70567,0.3536 0.20926,-0.12933 0.20119,-0.23761 -0.0282,-0.37942 -0.18831,-0.11637 -0.008,-0.19627 0.43476,-0.19321 0.41574,0.003 0.60206,0.0591 0.4141,0.12495 -0.26892,0.0942 -0.27355,0.20193 -0.0217,0.50536 0.273,0.32895 0.14822,0.37762 -0.84886,0.33112 -0.64289,-0.03 -1.82375,0.03 -2.62411,0.13324 -1.04048,0.13423 -1.3421,0.10909 -1.05833,-0.0882 z m 2.38125,-0.38805 c 0,-0.0572 -0.1786,-0.17252 -0.39688,-0.25628 -0.21828,-0.0838 -0.39687,-0.037 -0.39687,0.10398 0,0.14095 0.17859,0.25628 0.39687,0.25628 0.21828,0 0.39688,-0.0468 0.39688,-0.10398 z m -2.4964,-0.13288 c -0.0805,-0.13027 0.0254,-0.3028 0.23548,-0.3834 0.25474,-0.0977 0.3329,-0.0189 0.23477,0.23686 -0.17055,0.44445 -0.26747,0.47465 -0.47025,0.14654 z m -5.31968,-0.30991 c -0.0959,-0.1552 -0.11766,-0.33893 -0.0483,-0.40829 0.0694,-0.0694 0.19662,0.0576 0.28279,0.28219 0.17891,0.46623 0.0265,0.54823 -0.23447,0.1261 z m 19.31148,-0.22438 c 0.0823,-0.13309 0,-0.30229 -0.18282,-0.37599 -0.1828,-0.0737 -0.0499,-0.1434 0.29532,-0.15489 0.52875,-0.0176 0.57579,0.0417 0.29835,0.37599 -0.35978,0.43351 -0.65088,0.54325 -0.41085,0.15489 z m -17.8454,-0.12658 c 0,-0.0572 0.17859,-0.17252 0.39687,-0.25628 0.21829,-0.0838 0.39688,-0.037 0.39688,0.10398 0,0.14095 -0.17859,0.25628 -0.39688,0.25628 -0.21828,0 -0.39687,-0.0468 -0.39687,-0.10398 z m 1.37017,-0.50964 c 0.24426,-0.24459 0.63122,-0.44471 0.8599,-0.44471 0.22868,0 0.41576,-0.11832 0.41576,-0.26293 0,-0.34238 1.13451,-0.16998 1.25474,0.19067 0.0506,0.15189 -0.30028,0.33693 -0.77978,0.4112 -0.47951,0.0743 -1.16949,0.22852 -1.53329,0.34277 -0.61942,0.19451 -0.63323,0.17944 -0.21733,-0.237 z m 7.69181,-0.23847 c -0.83034,-0.40045 -0.74459,-0.77871 0.13229,-0.58357 1.42962,0.31816 1.65931,0.41872 1.50958,0.66096 -0.19635,0.31771 -0.89048,0.28499 -1.64187,-0.0774 z m -4.86,-0.53697 c -0.0172,-0.1819 -0.0101,-0.48752 0.0156,-0.67915 0.037,-0.27439 -0.0828,-0.28535 -0.56396,-0.0516 -0.53819,0.2615 -0.55742,0.25342 -0.16134,-0.0678 0.44323,-0.35951 1.74384,-0.81208 3.21117,-1.11738 0.41272,-0.0859 1.02708,-0.43283 1.36527,-0.77101 0.39637,-0.39637 0.73964,-0.53776 0.96597,-0.39788 0.24016,0.14843 -0.29025,0.51333 -1.67865,1.1548 -1.11636,0.5158 -2.14961,0.93781 -2.29605,0.93781 -0.45781,0 -0.62209,0.535 -0.28792,0.93763 0.2576,0.3104 0.2363,0.38529 -0.10954,0.38529 -0.23609,0 -0.44336,-0.14883 -0.46061,-0.33073 z m 1.08969,0.0504 c 0,-0.22742 1.4733,-0.41619 2.3151,-0.29663 1.18073,0.16769 0.56272,0.53557 -0.8599,0.51186 -0.80036,-0.0133 -1.4552,-0.11019 -1.4552,-0.21523 z m 11.81764,-0.55804 c -0.40151,-0.45756 -0.67157,-0.98421 -0.60016,-1.17034 0.0714,-0.18612 0.0473,-0.37586 -0.0537,-0.42164 -0.10096,-0.0458 -0.45498,-0.5892 -0.78671,-1.2076 l -0.60314,-1.12436 0.93202,0.52348 c 0.5126,0.28792 0.91876,0.43669 0.90254,0.33061 -0.0843,-0.5514 0.11256,-1.97581 0.21733,-1.5728 0.17862,0.68698 1.34837,1.79386 1.50122,1.42052 0.0687,-0.16785 0.14346,0.4092 0.16608,1.28232 0.0228,0.87313 0.0824,1.80508 0.13277,2.071 0.0589,0.31089 -0.0312,0.43634 -0.2526,0.35141 -0.18931,-0.0727 -0.45254,-0.0238 -0.58494,0.10861 -0.14454,0.14456 -0.53229,-0.0916 -0.9707,-0.59121 z m 1.13268,-0.0705 c 0.26252,-0.3163 0.18028,-0.37586 -0.49244,-0.35674 -0.72523,0.0206 -0.76079,0.0585 -0.34886,0.37128 0.25228,0.19158 0.47387,0.35211 0.49244,0.35674 0.0185,0.005 0.17556,-0.16245 0.34886,-0.37128 z m -0.35528,-2.72388 c -0.14539,-0.14538 -1.21539,1.51088 -1.21698,1.88372 0,0.12945 0.30255,-0.21193 0.67355,-0.75862 0.371,-0.54669 0.61555,-1.05298 0.54343,-1.1251 z m -38.524205,2.97561 c 0,-0.20642 1.7199,-0.93397 2.17432,-0.91978 0.18656,0.006 0.0416,0.16958 -0.32224,0.3639 -0.87447,0.46708 -1.85208,0.7605 -1.85208,0.55588 z m 21.381635,-0.0528 c 0.191,-0.0764 0.41921,-0.067 0.50713,0.0209 0.0879,0.0879 -0.0684,0.15045 -0.34727,0.13896 -0.30824,-0.0127 -0.37092,-0.0754 -0.15986,-0.15985 z m -6.30039,-0.61301 c -0.31173,-0.20145 -0.31896,-0.25735 -0.0338,-0.26053 0.29279,-0.003 0.29932,-0.081 0.0337,-0.40098 -0.34193,-0.412 -0.33915,-0.41127 1.85213,0.49174 0.21828,0.09 -0.0198,0.0982 -0.52916,0.0183 -0.69118,-0.10839 -0.82537,-0.0751 -0.52917,0.13136 0.35277,0.24585 0.35277,0.27658 0,0.27658 -0.21828,0 -0.57547,-0.11541 -0.79375,-0.25648 z m -1.32292,-0.52086 c 0,-0.14095 0.1786,-0.18775 0.39688,-0.10399 0.21828,0.0838 0.39687,0.19909 0.39687,0.25628 0,0.0572 -0.17859,0.10399 -0.39687,0.10399 -0.21828,0 -0.39688,-0.11533 -0.39688,-0.25628 z m -1.5875,-0.24458 c 0,-0.12995 0.1786,-0.30481 0.39688,-0.38857 0.24175,-0.0928 0.39687,-5.3e-4 0.39687,0.23627 0,0.21372 -0.17859,0.38857 -0.39687,0.38857 -0.21828,0 -0.39688,-0.10632 -0.39688,-0.23627 z m -3.704155,-0.56578 c 0,-0.14095 0.17859,-0.25628 0.39687,-0.25628 0.21828,0 0.39688,0.0468 0.39688,0.10398 0,0.0572 -0.1786,0.17252 -0.39688,0.25629 -0.21828,0.0838 -0.39687,0.037 -0.39687,-0.10399 z m 1.74704,0.0524 c -0.075,-0.12127 0.0319,-0.22049 0.23733,-0.22049 0.20548,0 0.31229,0.0992 0.23733,0.22049 -0.075,0.12127 -0.18174,0.22049 -0.23733,0.22049 -0.0556,0 -0.16237,-0.0992 -0.23733,-0.22049 z m 3.103665,-0.24253 c -3e-5,-0.4183 0.18579,-0.40708 0.78512,0.0474 0.44392,0.33663 0.43336,0.35865 -0.15433,0.32232 -0.34692,-0.0215 -0.63079,-0.18782 -0.63079,-0.36972 z m 10.08737,0.18083 c -0.31025,-0.50201 0.14224,-0.62588 0.60304,-0.16509 0.41246,0.41248 0.4132,0.44728 0.009,0.44728 -0.24088,0 -0.51644,-0.12699 -0.61235,-0.28219 z m 16.81192,-0.5882 c 0,-0.78324 1.07415,-3.97042 1.80604,-5.35886 0.64638,-1.22616 0.74777,-1.04593 0.17833,0.31693 -0.53078,1.27033 -0.48895,1.41066 0.18502,0.62065 0.45326,-0.5313 0.52428,-0.55733 0.361,-0.13229 -0.11179,0.29104 -0.32803,0.87447 -0.48054,1.29651 -0.15247,0.42203 -0.49749,0.98758 -0.76668,1.25677 -0.26919,0.26918 -0.48522,0.63826 -0.48006,0.82016 0.005,0.1819 0.19198,0.0331 0.41516,-0.33073 0.22693,-0.36994 0.33893,-0.44656 0.25408,-0.17386 -0.0834,0.26818 -0.22442,0.77734 -0.31329,1.13146 -0.0889,0.35412 -0.38603,0.76397 -0.66033,0.91077 -0.42312,0.22644 -0.49873,0.17222 -0.49873,-0.35751 z m 0.562,-0.52309 c -0.26131,-0.25936 -0.29171,-0.22897 -0.14812,0.14812 0.0994,0.26094 0.24731,0.40778 0.32877,0.32632 0.0815,-0.0815 1.6e-4,-0.29496 -0.18065,-0.47444 z m -13.62226,0.46744 c 0.0838,-0.21829 0.27318,-0.39688 0.42095,-0.39688 0.15486,0 0.12914,0.16812 -0.0607,0.39688 -0.18116,0.21828 -0.37061,0.39687 -0.42098,0.39687 -0.0504,0 -0.023,-0.17859 0.0607,-0.39687 z m -14.89739,-0.25295 c 0,-0.21188 0.10117,-0.32271 0.22481,-0.2463 0.12364,0.0764 0.15629,0.24977 0.0726,0.38524 -0.21394,0.34617 -0.29739,0.30719 -0.29739,-0.13894 z m 4.9389,-0.0116 c -0.36381,-0.20797 -0.5424,-0.37812 -0.39688,-0.37812 0.14552,0 0.56224,0.17015 0.92604,0.37812 0.3638,0.20797 0.5424,0.37812 0.39688,0.37812 -0.14552,0 -0.56224,-0.17015 -0.92604,-0.37812 z m 8.91563,-0.23631 c -0.10826,-0.27549 -0.13451,-0.56322 -0.0583,-0.63941 0.2413,-0.24131 0.45363,0.15414 0.35253,0.65657 -0.0927,0.46047 -0.10684,0.45964 -0.29422,-0.0172 z m 4.12195,-0.15737 c -0.0274,-0.36408 0.12197,-0.53236 0.4726,-0.53236 0.28202,0 0.5425,0.0201 0.57888,0.0447 0.0364,0.0246 0.33403,-0.0987 0.66146,-0.27389 0.32742,-0.17523 0.59531,-0.21741 0.59531,-0.0937 0,0.12369 -0.44649,0.45219 -0.99219,0.73001 -0.5457,0.27782 -1.05603,0.53944 -1.13408,0.58137 -0.078,0.0419 -0.15994,-0.16331 -0.18198,-0.45612 z m -9.06883,-0.55417 -0.66146,-0.53921 0.92604,0.44645 c 1.13252,0.546 1.2528,0.6454 0.77171,0.63785 -0.20616,-0.003 -0.67249,-0.24853 -1.03629,-0.54509 z m 7.40833,0.35783 c 0,-0.15134 0.27781,-0.45719 0.61735,-0.67967 0.51771,-0.33921 0.61738,-0.34412 0.61738,-0.0304 0,0.20574 -0.0598,0.31429 -0.13287,0.24121 -0.0731,-0.0731 -0.35089,0.0644 -0.61736,0.30559 -0.26648,0.24115 -0.4845,0.31464 -0.4845,0.1633 z m 7.85908,-1.68039 c -0.39394,-0.91301 -0.81241,-1.53729 -0.96658,-1.44201 -0.1615,0.0998 -0.20791,0.001 -0.1143,-0.24259 0.0867,-0.22584 0.21185,-0.41062 0.27816,-0.41062 0.17724,0 1.72439,3.47828 1.60173,3.60095 -0.0574,0.0574 -0.41693,-0.62021 -0.79901,-1.50573 z m -6.19551,0.71437 c 0.0534,-0.16282 0.42793,-0.33494 0.83238,-0.38248 0.90902,-0.10685 0.68934,0.36908 -0.25358,0.54933 -0.42714,0.0816 -0.64013,0.0203 -0.5788,-0.16685 z m 3.09893,-0.17937 c 0,-0.15411 0.11906,-0.20661 0.26458,-0.11667 0.14552,0.0899 0.26459,0.0412 0.26459,-0.10838 0,-0.14954 0.19965,-0.19528 0.44368,-0.10164 0.39698,0.15235 0.39002,0.19127 -0.0661,0.36998 -0.72514,0.28407 -0.9067,0.27541 -0.9067,-0.0433 z m -24.615295,-1.50574 -1.44616,-1.52135 1.52135,1.44617 c 0.83675,0.79539 1.52136,1.48 1.52136,1.52135 0,0.19639 -0.253,-0.0328 -1.59655,-1.44617 z m 4.917805,1.01479 c -0.0852,-0.13784 -0.0421,-0.32032 0.0957,-0.40551 0.13784,-0.0852 0.3203,-0.0421 0.4055,0.0957 0.0852,0.13784 0.0421,0.32032 -0.0957,0.40551 -0.13785,0.0852 -0.3203,0.0421 -0.4055,-0.0957 z m 4.90559,0.0632 c 0.0883,-0.50823 -0.0491,-0.72164 -0.25527,-0.39647 -0.16457,0.25956 -0.45302,0.0531 -1.10911,-0.79375 -0.48768,-0.6295 -0.65365,-0.94467 -0.36886,-0.70038 0.28483,0.24429 0.57738,0.42505 0.65014,0.40169 0.19066,-0.0612 1.18972,0.68589 1.40957,1.05409 0.1026,0.17185 0.0626,0.38906 -0.0889,0.48269 -0.1515,0.0936 -0.2584,0.0721 -0.23757,-0.0479 z m -0.28935,-0.71487 c 0,-0.0549 -0.20836,-0.2633 -0.46302,-0.46302 -0.41966,-0.32911 -0.429,-0.31975 -0.0999,0.0999 0.34565,0.44073 0.56293,0.58089 0.56293,0.36313 z m -32.543745,0.52917 c 0,-0.055 0.20836,-0.2633 0.46302,-0.46303 0.41966,-0.3291 0.429,-0.31974 0.0999,0.0999 -0.34565,0.44073 -0.56293,0.58089 -0.56293,0.36313 z m 11.37708,0 c 0,-0.055 0.20836,-0.2633 0.46302,-0.46303 0.41966,-0.3291 0.429,-0.31974 0.0999,0.0999 -0.34565,0.44073 -0.56293,0.58089 -0.56293,0.36313 z m 33.469785,-0.44219 c 1.31945,-0.59469 1.36703,-0.59967 1.36703,-0.14306 0,0.21946 -0.19982,0.33471 -0.48509,0.27977 -0.26678,-0.0514 -0.48514,-0.0109 -0.48525,0.0898 -1e-4,0.10079 -0.32752,0.19837 -0.7276,0.21685 -0.65085,0.0301 -0.61603,-0.0166 0.33091,-0.44339 z m -19.579155,-1.73033 c -1.21193,-1.14546 -1.61642,-1.62456 -0.94631,-1.12086 0.64368,0.48385 1.623025,1.30929 2.176295,1.8343 0.5533,0.52502 1.08755,0.88221 1.18719,0.79375 0.0997,-0.0885 0.0955,-0.012 -0.009,0.16991 -0.10467,0.1819 -0.21307,0.3291 -0.24085,0.32711 -0.0278,-0.002 -1.00303,-0.90388 -2.167195,-2.00421 z m 28.463575,1.58891 c 0.0127,-0.30823 0.0754,-0.37092 0.15986,-0.15986 0.0764,0.191 0.067,0.4192 -0.0209,0.50712 -0.0879,0.0879 -0.15047,-0.0683 -0.13899,-0.34726 z m -31.919805,-0.70556 -0.77711,-0.8599 0.8599,0.77711 c 0.80156,0.72437 0.98152,0.94268 0.77711,0.94268 -0.0455,0 -0.43249,-0.38695 -0.8599,-0.85989 z m 24.914725,0.28663 c 0.075,-0.12127 0.24831,-0.22049 0.38523,-0.22049 0.13695,0 0.24898,0.0992 0.24898,0.22049 0,0.12127 -0.17336,0.22049 -0.38524,0.22049 -0.21188,0 -0.32393,-0.0992 -0.24897,-0.22049 z m 1.5617,-0.21886 c -0.26418,-0.29194 -0.63637,-0.53079 -0.82711,-0.53079 -0.36796,0 -3.80455,-1.82053 -3.80455,-2.01545 0,-0.0631 0.35129,0.0668 0.7806,0.28886 0.92252,0.47705 1.16721,0.50804 0.9257,0.11723 -0.0974,-0.15753 0.19714,-0.0929 0.65447,0.14356 0.45733,0.2365 0.76192,0.54263 0.67686,0.68028 -0.0851,0.13766 0,0.1966 0.18978,0.13098 0.36896,-0.12779 2.25743,1.34332 2.02401,1.57672 -0.0767,0.0767 -0.35554,-0.0995 -0.61976,-0.39139 z m 5.70974,-0.26621 c -0.008,-0.21828 0.10086,-0.57547 0.24193,-0.79375 0.31255,-0.48365 0.31255,-0.0659 0,0.66146 -0.14994,0.34892 -0.23236,0.39398 -0.24193,0.13229 z m -6.41416,-2.17065 c -0.63201,-0.7573 -1.00029,-1.28605 -0.81839,-1.17501 0.50803,0.31012 0.39259,-0.20621 -0.19843,-0.88767 -0.47289,-0.54524 -0.65366,-0.5239 -0.5605,0.0661 0.0584,0.36964 -0.22884,0.20106 -1.28862,-0.75641 -1.08072,-0.97636 -1.18052,-1.58387 -0.20958,-1.2757 0.50763,0.16111 0.50017,0.11489 -0.11552,-0.71685 -0.96737,-1.30681 -1.17491,-1.83046 -0.30006,-0.75715 0.41497,0.50912 1.26148,1.52115 1.88113,2.24896 0.61968,0.72782 1.45312,1.76527 1.85209,2.30545 0.39899,0.54018 0.83137,0.98666 0.96086,0.99218 0.25889,0.011 0.93342,0.81933 0.94678,1.13452 0.005,0.10914 -0.21862,0.19844 -0.49612,0.19844 -0.28448,0 -1.00571,-0.60054 -1.65364,-1.3769 z m -2.16334,-2.94463 c 0,-0.19402 -0.15688,-0.35277 -0.34859,-0.35277 -0.26048,0 -0.27459,0.0892 -0.0558,0.35277 0.16102,0.19403 0.31789,0.35278 0.34859,0.35278 0.0307,0 0.0558,-0.15875 0.0558,-0.35278 z m 9.2421,3.2632 c 0.24059,-0.91708 0.91184,-2.19327 1.07027,-2.03484 0.0721,0.0721 -0.17833,0.70819 -0.55639,1.41365 -0.37809,0.70546 -0.60934,0.98499 -0.51388,0.62119 z m 2.74286,0.0435 c 0.17431,-0.33988 0.38949,-0.54541 0.47818,-0.45672 0.0887,0.0887 -0.0539,0.36678 -0.31692,0.61798 -0.45714,0.43662 -0.46423,0.42952 -0.16126,-0.16126 z m -37.720895,-0.0876 c -0.075,-0.12127 -0.0474,-0.22049 0.0611,-0.22049 0.10856,0 -0.15153,-0.38695 -0.57801,-0.85989 -0.56168,-0.62287 -0.46593,-0.5716 0.34737,0.18599 0.61754,0.57523 1.12279,1.06141 1.12279,1.08038 0,0.15121 -0.84704,-0.014 -0.95329,-0.18599 z m 21.640785,-0.79578 c -1.70635,-0.55074 -2.1822,-0.94278 -0.59012,-0.48618 0.48403,0.13882 0.98216,0.18928 1.10696,0.11215 0.12481,-0.0771 0.22691,-0.0142 0.22691,0.13996 0,0.15411 0.0893,0.2661 0.19844,0.24887 0.557,-0.0879 1.12448,0.0614 1.12448,0.29591 0,0.3418 -0.0842,0.32914 -2.06667,-0.31071 z m 7.57473,0.044 c -0.0742,-0.2171 -0.0342,-0.75113 0.0889,-1.18673 0.12314,-0.4356 0.22924,-1.09045 0.2358,-1.45521 0.007,-0.36476 0.15539,-0.98166 0.33073,-1.37088 0.28996,-0.64365 0.35391,-0.66901 0.70699,-0.28036 0.34613,0.38098 0.33576,0.40718 -0.0956,0.24165 -0.36338,-0.13944 -0.44561,-0.0861 -0.33036,0.21422 0.0844,0.21993 0.0311,0.39987 -0.11845,0.39987 -0.14955,0 -0.20921,0.10142 -0.13261,0.22538 0.0766,0.12395 -0.0159,0.98619 -0.20558,1.91608 -0.18968,0.92989 -0.40561,1.51308 -0.47983,1.29598 z m 2.46761,-0.46087 c -0.28871,-0.6747 -0.2822,-0.69026 0.0898,-0.21402 0.22067,0.28248 0.40119,0.6099 0.40119,0.72761 0,0.40214 -0.17946,0.21441 -0.49099,-0.51359 z m -8.88613,-0.20685 c -0.6604,-0.4995 -0.41548,-0.49648 0.54948,0.007 0.41683,0.21738 0.57926,0.39219 0.36098,0.38846 -0.21829,-0.004 -0.62799,-0.18159 -0.91046,-0.39524 z m 15.06566,-0.38847 c 0.22575,-0.43656 0.47001,-0.79375 0.54277,-0.79375 0.0728,0 -0.0524,0.35719 -0.27818,0.79375 -0.22575,0.43657 -0.47001,0.79375 -0.54277,0.79375 -0.0728,0 0.0524,-0.35718 0.27818,-0.79375 z m -17.06562,0 c -0.33917,-0.21918 -0.32954,-0.25706 0.0661,-0.26053 0.25467,-0.002 0.46303,0.11501 0.46303,0.26053 0,0.32269 -0.0299,0.32269 -0.52917,0 z m -25.198465,-0.45171 c 0.32912,-0.0633 0.80537,-0.0609 1.05834,0.005 0.25294,0.0662 -0.0164,0.118 -0.59841,0.11506 -0.58209,-0.003 -0.78907,-0.0571 -0.45993,-0.1204 z m 22.503025,0.006 c 0.191,-0.0764 0.4192,-0.067 0.50712,0.0209 0.0879,0.0879 -0.0684,0.15045 -0.34726,0.13897 -0.30824,-0.0127 -0.37092,-0.0754 -0.15986,-0.15986 z m 10.3724,-0.0177 c 0.01,-0.47036 0.46212,-0.91129 0.63995,-0.62355 0.0995,0.16105 0.1074,0.41189 0.0175,0.55741 -0.19073,0.30861 -0.66333,0.35617 -0.65741,0.0661 z m -24.766845,-0.39026 c 0.0376,-0.18554 0.23704,-0.33734 0.44318,-0.33734 0.20616,0 0.44103,-0.0887 0.52194,-0.19716 0.0809,-0.10843 0.46786,-0.2237 0.8599,-0.25614 0.39203,-0.0324 0.712785,-0.13821 0.712785,-0.23502 0,-0.0968 0.30879,-0.23506 0.68619,-0.30721 0.55322,-0.10575 0.6173,-0.0687 0.33073,0.19139 -0.51046,0.4632 -2.810765,1.26824 -3.104725,1.08656 -0.13655,-0.0844 -0.30903,-0.0307 -0.3833,0.11942 -0.0743,0.15007 -0.10427,0.12104 -0.0667,-0.0645 z m 11.339825,-0.77707 c -0.90696,-0.4364 -2.21665,-0.88894 -2.91042,-1.00564 l -1.2614,-0.21219 1.0236,-0.0311 c 1.32585,-0.0403 4.37049,1.00619 4.6958,1.61404 0.1388,0.25933 0.21838,0.46179 0.1769,0.44993 -0.0415,-0.0119 -0.81751,-0.37863 -1.72448,-0.81502 z m 24.53548,0.48922 c 0,-0.0455 0.38695,-0.43249 0.85989,-0.8599 l 0.8599,-0.7771 -0.77711,0.8599 c -0.72438,0.80154 -0.94268,0.98151 -0.94268,0.7771 z m -12.30014,-1.40499 c -0.25011,-0.38172 -0.32398,-0.61322 -0.16415,-0.51443 0.30544,0.18877 0.92147,1.20846 0.73007,1.20846 -0.0611,0 -0.31581,-0.31232 -0.56592,-0.69403 z m 6.34069,-0.0588 c -0.003,-0.38628 -0.0944,-1.05952 -0.20207,-1.49609 -0.12853,-0.52115 -0.11194,-0.65745 0.0483,-0.39687 0.36978,0.60132 0.63431,2.30221 0.3823,2.45797 -0.12221,0.0755 -0.22506,-0.17872 -0.22852,-0.56501 z m -25.40445,0.20628 c -0.0864,-0.13984 0.39016,-0.24716 1.09757,-0.24716 1.44116,0 1.45653,0.12386 0.0425,0.342 -0.54303,0.0838 -1.05608,0.0411 -1.14009,-0.0948 z m 14.80548,-0.46574 c -0.28525,-0.26574 -0.64831,-0.43994 -0.80682,-0.38711 -0.15849,0.0528 -0.49054,-0.21276 -0.73785,-0.59021 l -0.44966,-0.68628 0.74356,0.38679 c 0.40897,0.21273 1.03219,0.69575 1.38499,1.07338 0.73414,0.78583 0.64153,0.92617 -0.13422,0.20343 z m 4.88299,0.0201 c -0.32909,-0.41964 -0.31975,-0.429 0.0999,-0.0999 0.44072,0.34564 0.5809,0.56291 0.36312,0.56291 -0.0549,0 -0.26329,-0.20836 -0.46302,-0.46302 z m 6.91293,-0.0661 c 0.15576,-0.29104 0.34274,-0.52917 0.4155,-0.52917 0.0728,0 0.005,0.23813 -0.15092,0.52917 -0.15576,0.29104 -0.34274,0.52916 -0.4155,0.52916 -0.0728,0 -0.005,-0.23812 0.15092,-0.52916 z m -11.47422,-1.05266 c -0.38314,-0.57897 -0.69662,-1.14124 -0.69662,-1.2495 0,-0.10826 0.16034,0.038 0.35632,0.32506 0.86172,1.26223 1.28278,1.9771 1.16448,1.9771 -0.0702,0 -0.44103,-0.4737 -0.82418,-1.05266 z m 14.11918,0.3935 c 0.13784,-0.36254 0.18526,-0.82949 0.10535,-1.03766 -0.18566,-0.48383 0.37055,-1.54287 0.70255,-1.33769 0.13822,0.0854 0.2513,0.009 0.2513,-0.16897 0,-0.17837 0.0721,-0.25222 0.16018,-0.16412 0.19603,0.19604 -1.0064,3.3676 -1.27677,3.3676 -0.10626,0 -0.0805,-0.29662 0.0574,-0.65916 z m 2.39858,-0.002 c 2.1e-4,-0.14553 0.14692,-0.45708 0.32607,-0.69233 0.29459,-0.38693 0.3624,-0.38843 0.71051,-0.0158 0.33925,0.36317 0.33184,0.39163 -0.0625,0.2403 -0.28038,-0.1076 -0.54573,-0.003 -0.71088,0.28036 -0.14497,0.24862 -0.2634,0.33297 -0.26318,0.18745 z m -36.132085,-1.33239 c 0.43657,-0.1999 0.96102,-0.36882 1.16549,-0.37539 0.28231,-0.009 0.25051,-0.15512 -0.13229,-0.60724 -0.50162,-0.59247 -0.50146,-0.59315 0.0342,-0.14291 0.44265,0.37204 0.87341,0.42431 2.424715,0.29426 l 1.88643,-0.15815 -0.89758,-0.9242 c -0.49366,-0.50832 -0.83359,-1.02768 -0.75543,-1.15416 0.0782,-0.12647 0.0257,-0.22995 -0.1165,-0.22995 -0.31623,0 -1.23365,-1.47653 -1.479575,-2.38125 -0.12261,-0.45114 -0.10033,-0.54678 0.0701,-0.30079 0.210975,0.3045 0.269475,0.3045 0.375675,0 0.0702,-0.20151 0.39582,0.22313 0.73771,0.96225 0.33658,0.7276 1.00875,1.8192 1.49376,2.42577 0.48498,0.60658 0.88181,1.23166 0.88181,1.38907 0,0.17796 0.70048,0.2862 1.85208,0.2862 1.01864,0 1.85208,-0.0702 1.85208,-0.15603 0,-0.0858 -0.26789,-0.37564 -0.59531,-0.64406 -0.46567,-0.38175 -0.49723,-0.47445 -0.14499,-0.42564 0.24767,0.0343 0.68373,0.27363 0.96898,0.53179 0.45403,0.41088 0.93483,0.60085 1.70516,0.6737 0.11774,0.0111 0.13004,0.16907 0.0273,0.35097 -0.14938,0.26458 -0.11546,0.26458 0.1696,0 0.44098,-0.40931 0.87556,-0.4354 0.62984,-0.0378 -0.12187,0.19719 0.003,0.23451 0.38206,0.1142 0.37007,-0.11745 0.7193,-0.0225 1.0187,0.27685 0.43103,0.43104 0.40605,0.44697 -0.46384,0.29584 -4.65188,-0.80818 -9.76426,-0.8321 -12.317305,-0.0576 -1.58184,0.47986 -1.82935,0.47803 -0.77293,-0.006 z m 27.266055,0.16444 c -0.0852,-0.13784 -0.0421,-0.32031 0.0957,-0.4055 0.13785,-0.0852 0.32031,-0.0421 0.4055,0.0957 0.0852,0.13784 0.0421,0.32032 -0.0957,0.40551 -0.13785,0.0852 -0.32031,0.0421 -0.4055,-0.0957 z m -7.77621,-0.95997 c -0.44329,-0.97295 -0.35873,-1.18051 0.12062,-0.296 0.22384,0.41304 0.35748,0.8005 0.29697,0.86101 -0.0605,0.0605 -0.24842,-0.19374 -0.41759,-0.56501 z m 20.51708,0.1466 c 0.0757,-0.2894 0.24892,-0.4574 0.38495,-0.37332 0.14597,0.0902 0.12036,0.3059 -0.0625,0.52619 -0.41735,0.50289 -0.48551,0.47059 -0.32248,-0.15287 z m -48.920075,0.0809 c 0.19101,-0.0764 0.41921,-0.067 0.50713,0.0209 0.0879,0.0879 -0.0684,0.15046 -0.34727,0.13897 -0.30824,-0.0127 -0.37092,-0.0754 -0.15986,-0.15985 z m 4.23334,0 c 0.191,-0.0764 0.4192,-0.067 0.50712,0.0209 0.0879,0.0879 -0.0684,0.15046 -0.34726,0.13897 -0.30824,-0.0127 -0.37092,-0.0754 -0.15986,-0.15985 z m 0.6551,-0.43955 c -0.93567,-0.62805 -1.07285,-0.87902 -0.48045,-0.87902 0.21428,0 0.71281,0.33735 1.10783,0.74966 0.84201,0.87888 0.57219,0.93453 -0.62738,0.12936 z m -2.19299,0.0911 c -0.33917,-0.21919 -0.32954,-0.25707 0.0661,-0.26053 0.25466,-0.002 0.46302,0.11501 0.46302,0.26053 0,0.32269 -0.0298,0.32269 -0.52916,0 z m 27.781245,-0.0156 c 0,-0.15411 0.11906,-0.20661 0.26458,-0.11667 0.14552,0.0899 0.26458,0.21602 0.26458,0.28019 0,0.0642 -0.11906,0.11668 -0.26458,0.11668 -0.14552,0 -0.26458,-0.12609 -0.26458,-0.2802 z m -10.58334,-0.64585 c -0.3638,-0.20796 -0.56798,-0.38234 -0.45371,-0.38749 0.11425,-0.005 0.0699,-0.27728 -0.0985,-0.6047 -0.16846,-0.32742 -0.20063,-0.47625 -0.0715,-0.33073 1.69016,1.90466 1.70815,1.94284 0.62373,1.32292 z m 27.29103,-0.71248 c 0.31954,-0.68291 0.66421,-1.21869 0.76597,-1.19063 0.10176,0.0281 0.69043,-0.48476 1.30815,-1.1396 0.84302,-0.89366 0.94901,-0.95965 0.42487,-0.26458 -0.38407,0.50932 -0.89614,1.31299 -1.13795,1.78593 -0.24182,0.47295 -0.54734,0.8599 -0.67897,0.8599 -0.13163,0 -0.46966,0.2679 -0.75118,0.59532 -0.45953,0.53442 -0.45246,0.46832 0.0691,-0.64634 z m 2.53632,0.54736 c 0.1795,-0.18082 0.39299,-0.26212 0.47445,-0.18065 0.0814,0.0815 -0.0654,0.2294 -0.32633,0.32876 -0.37709,0.14359 -0.40746,0.1132 -0.14812,-0.14811 z m -46.146025,-1.09165 c -0.29477,-0.32742 -0.63063,-0.77391 -0.74639,-0.99219 -0.22331,-0.42107 -0.1624,-0.36348 0.90943,0.8599 0.3506,0.40018 0.57793,0.7276 0.50517,0.7276 -0.0728,0 -0.37346,-0.26789 -0.66821,-0.59531 z m 12.915685,0.24253 c -0.21878,-0.26362 -0.20468,-0.35278 0.0558,-0.35278 0.19172,0 0.34859,0.15875 0.34859,0.35278 0,0.19403 -0.0251,0.35278 -0.0558,0.35278 -0.0307,0 -0.18756,-0.15875 -0.34859,-0.35278 z m -1.99255,-3.0871 c -0.67048,-1.30986 -1.21621,-2.58978 -1.21277,-2.84428 0.003,-0.25449 0.27755,0.19213 0.6091,0.99249 0.33155,0.80037 1.05428,2.08029 1.60604,2.84427 0.69009,0.95551 0.88048,1.38907 0.60995,1.38907 -0.22855,0 -0.90385,-0.99745 -1.61232,-2.38155 z m 23.67267,1.96262 c 0.0127,-0.30822 0.0754,-0.37091 0.15986,-0.15985 0.0764,0.191 0.067,0.4192 -0.0209,0.50712 -0.0879,0.0879 -0.15047,-0.0684 -0.13899,-0.34727 z m -31.662025,-0.7789 c -0.39148,-0.51328 -0.66543,-0.97638 -0.60875,-1.02911 0.0566,-0.0527 0.42931,0.36724 0.82812,0.93325 0.90514,1.28463 0.74181,1.35601 -0.21937,0.0959 z m 11.680615,-0.2611 c -0.60085,-1.43797 -0.49419,-1.78972 0.12729,-0.41991 0.29043,0.64013 0.47339,1.21855 0.40658,1.28537 -0.0668,0.0668 -0.30707,-0.32263 -0.53387,-0.86546 z m 26.65933,-0.19467 c 0.0265,-0.69119 0.0923,-1.1242 0.14626,-0.96225 0.065,0.19514 0.18204,0.17281 0.34677,-0.0662 0.16343,-0.23708 0.18737,-0.0434 0.0699,0.56538 -0.30316,1.57098 -0.61516,1.82761 -0.56293,0.46307 z m 3.37624,0.17634 c 0.0127,-0.30823 0.0754,-0.37092 0.15987,-0.15985 0.0764,0.19099 0.067,0.4192 -0.0209,0.50712 -0.0879,0.0879 -0.15047,-0.0683 -0.13898,-0.34727 z m -6.01948,-1.82956 c 0,-1.01865 0.049,-1.40295 0.10628,-0.854 0.0573,0.54895 0.0563,1.38239 -0.003,1.85208 -0.0584,0.4697 -0.10531,0.0206 -0.10414,-0.99808 z m 6.28407,0.7717 c 0.0127,-0.30823 0.0754,-0.37092 0.15986,-0.15986 0.0764,0.191 0.067,0.41921 -0.0209,0.50712 -0.0879,0.0879 -0.15047,-0.0684 -0.13899,-0.34726 z m -25.95004,-0.50712 c 0,-0.22932 0.15755,-0.31981 0.39687,-0.22797 0.21828,0.0838 0.39688,0.18635 0.39688,0.22797 0,0.0416 -0.1786,0.14421 -0.39688,0.22797 -0.23932,0.0918 -0.39687,10e-4 -0.39687,-0.22797 z m -3.43959,-0.0794 c -0.50932,-0.0437 -1.2237,-0.30717 -1.5875,-0.58559 l -0.66146,-0.5062 1.29882,0.38714 c 0.71435,0.21294 1.78591,0.38897 2.38125,0.3912 0.59534,0.002 1.26103,0.12137 1.47931,0.26476 0.39068,0.25663 -0.34158,0.26888 -2.91042,0.0487 z m 19.37597,-0.58208 c 0,-0.50933 0.0545,-0.71768 0.12099,-0.46302 0.0666,0.25466 0.0666,0.67138 0,0.92604 -0.0665,0.25466 -0.12099,0.0463 -0.12099,-0.46302 z m -37.729315,-0.92437 c -0.9485,-2.00326 -0.85908,-2.21789 0.12745,-0.30593 0.43926,0.8513 0.74702,1.59945 0.68392,1.66255 -0.0631,0.0631 -0.4282,-0.54738 -0.81137,-1.35662 z m 44.907325,0.25424 c 0.0673,-0.72283 0.1347,-1.67143 0.14973,-2.108 0.0177,-0.51729 0.10237,-0.67544 0.24283,-0.45409 0.21368,0.33677 -0.0974,3.45877 -0.372,3.73338 -0.0786,0.0786 -0.0879,-0.44845 -0.0206,-1.17129 z m -21.11301,-0.31065 c -0.14359,-0.37708 -0.11319,-0.40747 0.14812,-0.14811 0.18081,0.17948 0.26212,0.39297 0.18065,0.47443 -0.0815,0.0815 -0.22942,-0.0654 -0.32877,-0.32632 z m -13.622175,-0.49648 c 0.0127,-0.30822 0.0754,-0.37092 0.15987,-0.15985 0.07639,0.19099 0.06699,0.4192 -0.0209,0.50712 -0.0879,0.0879 -0.15046,-0.0683 -0.13898,-0.34727 z m 14.667175,-0.36772 c -0.3353,-0.64842 -0.34134,-0.76152 -0.0342,-0.64368 0.2049,0.0786 0.42791,0.43261 0.4956,0.78664 0.16295,0.85246 0.0325,0.81203 -0.46136,-0.14296 z m 11.65992,0.55757 c -0.11395,-0.18441 -0.13575,-0.40675 -0.0484,-0.49408 0.23677,-0.2368 0.49495,0.11146 0.36708,0.49515 -0.0896,0.26886 -0.15195,0.26865 -0.31867,-0.001 z m -26.591675,-1.77735 c 0.0127,-0.30822 0.0754,-0.37092 0.15986,-0.15985 0.0764,0.19099 0.0671,0.4192 -0.0209,0.50712 -0.0879,0.0879 -0.15047,-0.0684 -0.13899,-0.34727 z m 11.587025,-1.10243 c -0.32909,-0.41964 -0.31975,-0.429 0.0999,-0.0999 0.44071,0.34564 0.58089,0.56292 0.36311,0.56292 -0.0549,0 -0.26328,-0.20836 -0.46302,-0.46302 z m 15.92964,-0.48507 c 0.0127,-0.30822 0.0754,-0.37092 0.15986,-0.15985 0.0764,0.19099 0.067,0.4192 -0.0209,0.50712 -0.0879,0.0879 -0.15047,-0.0684 -0.13899,-0.34727 z m 11.37708,0 c 0.0127,-0.30822 0.0754,-0.37092 0.15986,-0.15985 0.0764,0.19099 0.067,0.4192 -0.0209,0.50712 -0.0879,0.0879 -0.15047,-0.0684 -0.13899,-0.34727 z m -30.15705,-0.64422 c -0.64034,-0.43392 -1.29519,-0.79256 -1.45521,-0.79699 -0.15999,-0.004 -0.0841,-0.12852 0.1686,-0.27576 0.55853,-0.32541 1.63509,0.156 1.35659,0.60663 -0.12364,0.20003 -0.0212,0.23415 0.31525,0.10504 0.27409,-0.10519 0.41244,-0.10532 0.3074,-2.7e-4 -0.10502,0.10502 0.006,0.40897 0.24752,0.67544 0.6037,0.66708 0.4146,0.60391 -0.94015,-0.31407 z m 1.792,0.33554 c -0.32909,-0.41964 -0.31975,-0.429 0.0999,-0.0999 0.44072,0.34564 0.5809,0.56292 0.36312,0.56292 -0.0549,0 -0.26329,-0.20836 -0.46302,-0.46302 z m 13.75833,-0.26458 c -0.32909,-0.41965 -0.31975,-0.42901 0.0999,-0.0999 0.44071,0.34564 0.58089,0.56291 0.36311,0.56291 -0.0549,0 -0.26328,-0.20836 -0.46302,-0.46302 z M 98.879145,137.5776 c -0.10506,-0.39953 -0.1865,-0.78773 -0.18095,-0.86267 0.006,-0.0749 -0.17967,-0.50325 -0.41163,-0.95182 -0.23196,-0.44856 -0.36965,-0.86765 -0.306,-0.93132 0.20119,-0.20118 1.28191,2.56419 1.18359,3.02855 -0.0638,0.3012 -0.15531,0.2104 -0.28501,-0.28274 z m 7.314955,-1.15089 c 0,-0.41661 0.33222,-0.49712 0.55613,-0.13479 0.0805,0.13027 -0.0116,0.29751 -0.20486,0.37164 -0.1932,0.0741 -0.35127,-0.0324 -0.35127,-0.23685 z m 3.61599,-0.68501 c -0.65485,-0.59698 -0.9525,-0.95953 -0.66146,-0.80567 0.49773,0.26312 2.21747,1.92536 1.96773,1.90193 -0.0636,-0.006 -0.65143,-0.49929 -1.30627,-1.09626 z m 16.53645,0.84252 c 0.0899,-0.14552 0.21604,-0.26458 0.2802,-0.26458 0.0642,0 0.11668,0.11906 0.11668,0.26458 0,0.14553 -0.1261,0.26459 -0.2802,0.26459 -0.15411,0 -0.20661,-0.11906 -0.11668,-0.26459 z m -16.0529,-1.41475 c -2.11786,-1.42909 -2.2442,-1.54615 -0.88043,-0.81569 0.7276,0.38971 1.55773,0.93193 1.84473,1.20492 0.71723,0.68222 0.48408,0.58811 -0.9643,-0.38923 z m -6.83355,-3.11914 c -0.68125,-0.29197 -0.88435,-0.44912 -0.47469,-0.36733 0.94255,0.1882 2.06219,0.61908 2.06219,0.79363 0,0.20893 -0.28202,0.1332 -1.5875,-0.4263 z m 20.81389,0.38875 c -0.097,-0.097 -0.15888,-0.84115 -0.1375,-1.65364 l 0.0389,-1.47726 0.18,1.5875 c 0.19352,1.70714 0.18796,1.81275 -0.0814,1.5434 z m 14.72846,-0.21828 c 0,-0.21828 0.19843,-0.57646 0.44098,-0.79595 0.391,-0.35385 0.44098,-0.3541 0.44098,-0.002 0,0.21828 -0.19844,0.57646 -0.44098,0.79595 -0.391,0.35385 -0.44098,0.3541 -0.44098,0.002 z m -22.97068,-1.06053 c 0.0987,-0.29104 0.20709,-0.64823 0.24088,-0.79375 0.0338,-0.14552 0.27718,-0.70006 0.54094,-1.23232 0.37362,-0.75398 0.55308,-0.90008 0.81254,-0.66146 0.35245,0.32417 -0.0135,1.07916 -0.40548,0.83683 -0.11131,-0.0688 -0.269,0.2004 -0.35047,0.59822 -0.0814,0.39782 -0.34377,0.96144 -0.58295,1.25248 l -0.43492,0.52917 z m 21.84503,-0.022 c 0.0127,-0.30823 0.0754,-0.37092 0.15987,-0.15985 0.0764,0.19099 0.067,0.4192 -0.0209,0.50711 -0.0879,0.0879 -0.15047,-0.0684 -0.13898,-0.34726 z m -8.2683,-0.904 c -0.0555,-0.58209 -0.008,-1.05834 0.10451,-1.05834 0.11297,0 0.20542,0.47625 0.20542,1.05834 0,0.58208 -0.047,1.05833 -0.10451,1.05833 -0.0575,0 -0.14991,-0.47625 -0.20542,-1.05833 z m -14.90361,-0.52917 c -0.22575,-0.43656 -0.35095,-0.79375 -0.27819,-0.79375 0.0728,0 0.31703,0.35719 0.54277,0.79375 0.22574,0.43656 0.35094,0.79375 0.27818,0.79375 -0.0728,0 -0.31702,-0.35719 -0.54276,-0.79375 z m 0.55562,-0.68792 c -0.0942,-0.24538 -0.11168,-0.50568 -0.0389,-0.57844 0.0728,-0.0728 0.20934,0.0685 0.30351,0.31386 0.0942,0.24539 0.11168,0.50569 0.0389,0.57845 -0.0728,0.0728 -0.20934,-0.0685 -0.30351,-0.31387 z m 7.4426,-2.13739 c 0.91641,-1.658 0.99703,-1.9721 0.99033,-3.85933 -0.008,-2.29971 0.23715,-2.00961 0.50668,0.59922 0.12361,1.19632 0.096,1.59899 -0.0906,1.32292 -0.23009,-0.34025 -0.26895,-0.33024 -0.27242,0.0701 -0.005,0.50638 -1.48759,3.27395 -1.8868,3.52068 -0.13462,0.0832 0.20418,-0.66095 0.75285,-1.65364 z m 1.32392,1.46956 c 0.17949,-0.18082 0.39299,-0.26211 0.47445,-0.18065 0.0814,0.0815 -0.0654,0.22941 -0.32634,0.32877 -0.37708,0.14358 -0.40745,0.11319 -0.14811,-0.14812 z m -10.54584,-0.0995 c -0.0183,-0.0728 -0.0498,-0.22159 -0.0702,-0.33073 -0.0204,-0.10914 -0.14209,-0.37703 -0.27033,-0.59531 -0.18902,-0.32166 -0.16618,-0.3347 0.12044,-0.0688 0.33419,0.31002 0.59666,1.12716 0.36203,1.12716 -0.0599,0 -0.12375,-0.0595 -0.14195,-0.1323 z m 4.53099,0.0324 c 0,-0.0549 0.20836,-0.2633 0.46302,-0.46302 0.41966,-0.32911 0.42899,-0.31975 0.0999,0.0999 -0.34566,0.44073 -0.56293,0.58089 -0.56293,0.36313 z m -3.53015,-0.56377 c -0.34806,-0.25451 -0.41823,-0.47806 -0.24641,-0.78508 0.20471,-0.36579 0.28797,-0.32449 0.56309,0.27935 0.39182,0.85995 0.32144,0.97234 -0.31668,0.50573 z m 9.90102,-0.28442 c 0.0127,-0.30823 0.0754,-0.37092 0.15987,-0.15985 0.0764,0.19099 0.067,0.4192 -0.0209,0.50711 -0.0879,0.0879 -0.15047,-0.0684 -0.13898,-0.34726 z m -5.07293,-1.12191 c 0.16081,-0.3005 0.4227,-0.62689 0.58195,-0.72532 0.20749,-0.12822 0.20667,-0.0241 -0.003,0.3674 -0.16081,0.3005 -0.4227,0.62689 -0.58195,0.72532 -0.20749,0.12822 -0.20667,0.0241 0.003,-0.3674 z m -5.40986,-0.85802 c -0.0959,-0.1552 -0.11766,-0.33893 -0.0483,-0.40829 0.0694,-0.0694 0.19661,0.0576 0.28279,0.28219 0.17891,0.46622 0.0265,0.54823 -0.23448,0.1261 z m -0.65058,-1.42427 c 0,-0.51382 0.28649,-1.20396 0.49977,-1.20396 0.36722,0 0.27022,1.27542 -0.10803,1.42057 -0.22987,0.0882 -0.39174,-0.001 -0.39174,-0.21661 z m -0.9625,-0.21177 c -0.59603,-0.84402 -1.19878,-2.10933 -0.9239,-1.93944 0.16857,0.10417 0.54531,0.65757 0.83722,1.22978 0.51538,1.01022 0.56063,1.38083 0.0867,0.70966 z m 20.1618,-1.70838 c -0.14359,-0.37709 -0.11319,-0.40748 0.14812,-0.14812 0.18081,0.17948 0.26212,0.39297 0.18065,0.47443 -0.0815,0.0815 -0.22942,-0.0654 -0.32877,-0.32631 z m -19.17843,-0.54058 c 0.0146,-0.32283 0.0643,-0.35382 0.16434,-0.10236 0.1211,0.3045 0.17901,0.3045 0.37192,0 0.17883,-0.28225 0.2294,-0.26 0.23257,0.10236 0.003,0.25466 -0.17454,0.46302 -0.39283,0.46302 -0.21828,0 -0.38748,-0.20836 -0.376,-0.46302 z m 18.64927,-0.51776 c -0.14359,-0.37708 -0.11319,-0.40747 0.14811,-0.14811 0.18082,0.17948 0.26212,0.39297 0.18066,0.47443 -0.0815,0.0815 -0.22942,-0.0654 -0.32877,-0.32632 z m -31.41975,-2.90413 c 0.191,-0.0764 0.41921,-0.067 0.50713,0.0209 0.0879,0.0879 -0.0684,0.15046 -0.34727,0.13897 -0.30824,-0.0127 -0.37092,-0.0754 -0.15986,-0.15985 z m 4.04701,-2.21593 c -0.34803,-0.28984 -0.57671,-0.58306 -0.50816,-0.65161 0.0686,-0.0686 0.40384,0.17255 0.74507,0.53578 0.74242,0.79028 0.63566,0.84249 -0.23691,0.11583 z m -1.88605,-2.50452 c -0.18407,-0.22179 -0.26781,-0.47011 -0.18611,-0.55182 0.0817,-0.0817 0.28146,0.0998 0.44389,0.40327 0.34655,0.64756 0.21791,0.72171 -0.25778,0.14855 z m -11.036005,-0.30925 c 0.25744,-0.0671 0.61463,-0.0627 0.79375,0.01 0.17915,0.0725 -0.0315,0.12737 -0.46805,0.12197 -0.43656,-0.005 -0.58311,-0.0647 -0.3257,-0.13177 z m 8.2632,-0.46855 c -0.43656,-0.19989 -0.60814,-0.37312 -0.38129,-0.38494 0.22683,-0.0118 0.643545,0.15332 0.926035,0.36698 0.63786,0.48246 0.48096,0.48763 -0.544745,0.018 z m -28.30647,-2.06833 c 0.25553,-0.40472 0.53117,-0.6693 0.61251,-0.58796 0.0813,0.0813 -0.12774,0.41248 -0.46461,0.73586 l -0.61251,0.58796 z m 38.249215,-3.7841 c 0.0127,-0.30823 0.0754,-0.37092 0.15986,-0.15985 0.0764,0.19099 0.067,0.4192 -0.0209,0.50711 -0.0879,0.0879 -0.15047,-0.0683 -0.13899,-0.34726 z m 1.26828,-4.54202 c -0.32909,-0.41964 -0.31975,-0.429 0.0999,-0.0999 0.44071,0.34565 0.58089,0.56292 0.36311,0.56292 -0.0549,0 -0.26328,-0.20836 -0.46302,-0.46302 z M 78.820085,98.285785 c -0.32909,-0.419645 -0.31975,-0.429004 0.0999,-0.0999 0.44072,0.345643 0.58089,0.562917 0.36312,0.562917 -0.0549,0 -0.26329,-0.20836 -0.46302,-0.463021 z m 0,-1.058334 c -0.32909,-0.419645 -0.31975,-0.429003 0.0999,-0.0999 0.44072,0.345644 0.58089,0.562917 0.36312,0.562917 -0.0549,0 -0.26329,-0.208359 -0.46302,-0.463021 z"
       style="fill:#000000;stroke-width:0.264583"
       id="path1" />
  </g>
</svg>
