<?xml version="1.0" encoding="UTF-8" standalone="no"?>
<!-- Created with Inkscape (http://www.inkscape.org/) -->

<svg
   version="1.1"
   id="svg1"
   width="1080"
   height="1080"
   viewBox="0 0 1080 1080"
   sodipodi:docname="tamissa_logo.svg"
   inkscape:version="1.4.3 (0d15f75, 2025-12-25)"
   inkscape:export-filename="gallery\static\gallery\images\Logo-clean.png"
   inkscape:export-xdpi="96"
   inkscape:export-ydpi="96"
   inkscape:export-batch-name="tamissa_logo"
   inkscape:export-batch-path="E:\Tamissa Brand\My shop"
   xmlns:inkscape="http://www.inkscape.org/namespaces/inkscape"
   xmlns:sodipodi="http://sodipodi.sourceforge.net/DTD/sodipodi-0.dtd"
   xmlns:xlink="http://www.w3.org/1999/xlink"
   xmlns="http://www.w3.org/2000/svg"
   xmlns:svg="http://www.w3.org/2000/svg">
  <defs
     id="defs1">
    <color-profile
       name="Agfa-:-Swop-Standard"
       xlink:href="file:///C:/WINDOWS/system32/spool/drivers/color/RSWOP.icm"
       id="color-profile1" />
  </defs>
  <sodipodi:namedview
     id="namedview1"
     pagecolor="#ffffff"
     bordercolor="#000000"
     borderopacity="0"
     inkscape:showpageshadow="2"
     inkscape:pageopacity="0.0"
     inkscape:pagecheckerboard="0"
     inkscape:deskcolor="#d1d1d1"
     inkscape:zoom="0.51970416"
     inkscape:cx="915.9057"
     inkscape:cy="657.10461"
     inkscape:window-width="1920"
     inkscape:window-height="1009"
     inkscape:window-x="-8"
     inkscape:window-y="-8"
     inkscape:window-maximized="1"
     inkscape:current-layer="g2" />
  <g
     inkscape:groupmode="layer"
     id="layer2"
     inkscape:label="Image 1"
     style="display:inline;opacity:1">
    <g
       id="g2"
       transform="translate(-833.16631,71.194349)"
       style="opacity:1">
      <path
         style="opacity:1;stroke:#1a1a1a;stroke-width:1.80226;fill:#504416"
         d="m 1282.8876,718.61969 c -34.3918,-4.91263 -52.1889,-26.78219 -59.2107,-59.90859 -0.5703,-20.29962 3.7342,-46.281 20.0915,-70.95455 12.9038,-18.54059 33.3431,-33.28907 47.3783,-50.0536 12.1248,-16.53237 16.6153,-36.96807 29.12,-53.89186 8.3036,-15.6684 17.6789,-31.60271 27.8825,-46.7964 9.8468,-14.99058 18.263,-30.82203 27.8824,-45.79435 10.7117,-20.56163 17.6621,-21.44663 -4.8044,-21.82413 -81.3324,0.4075 -166.2058,-0.84397 -242.0892,26.10478 -29.5812,11.76215 -65.327,36.42553 -52.6567,66.37579 13.9826,28.18264 52.279,33.58885 90.1252,29.49749 22.8371,-3.22231 39.6426,-10.58445 52.6824,-10.87752 -44.1137,19.74318 -107.3647,27.35949 -147.7429,-2.34417 -21.7533,-16.44166 -20.5303,-45.05091 -5.4091,-63.87395 14.2284,-18.07112 37.1592,-32.69541 63.031,-40.19707 22.9201,-6.43218 45.6498,-12.30149 69.9622,-15.63461 47.8402,-5.29028 98.0527,-7.75537 139.9646,-29.40586 32.953,-14.9899 62.3537,-35.55657 87.9201,-58.01012 12.3314,-14.39564 25.4733,-27.79973 35.139,-43.51281 11.8024,-22.42374 17.8771,-48.23201 12.6656,-73.25624 -1.6889,-18.28069 20.2454,20.19973 20.2809,27.07683 12.7261,57.40993 -19.9077,112.43101 -45.5797,164.31152 17.0515,11.42616 59.0329,6.54256 89.1653,9.26988 38.4494,1.68239 79.7501,1.16526 112.3023,20.54057 38.3037,14.89963 56.6131,64.1746 16.1676,85.5002 -12.6532,10.802 -75.7494,14.31411 -33.5066,0.15217 34.2009,-10.7418 48.2528,-49.37826 22.0372,-71.30967 -38.8567,-29.29462 -96.3026,-21.87874 -145.15,-24.3779 -30.1722,1.03943 -64.6007,-7.41255 -84.2296,19.57048 -19.3916,32.25708 -39.0267,64.4401 -57.1569,97.17789 28.8039,-9.62118 54.5163,-21.25994 83.944,-27.97584 31.9507,-4.92252 75.2818,-8.55207 93.2892,19.26157 21.5738,40.20445 -5.5022,84.43082 -32.2801,118.3399 -42.2269,50.55048 -97.1411,98.10288 -168.574,120.56716 -19.9892,5.44156 -41.5647,9.06674 -62.6414,6.25298 z m 43.1606,-23.00922 c 49.889,-10.79282 104.058,-48.22681 127.1054,-66.2943 14.9713,-11.89522 30.6896,-29.92082 42.8831,-46.5703 25.4085,-39.02696 21.9138,-30.88766 28.0855,-48.38121 3.8244,-24.9724 9.1873,-62.87017 -30.0551,-70.60478 -44.442,-5.08028 -109.4456,21.54162 -121.5936,34.40988 -12.7387,11.26609 -30.2897,23.82255 -44.9902,69.71967 -8.6763,29.84247 -17.4693,69.77014 16.0622,91.77869 21.6398,11.62326 -27.9468,1.63909 -41.5466,-10.82621 -23.2897,-19.44324 -23.1344,-47.91131 -21.8878,-72.38344 3.2451,-12.10609 5.992,-24.60422 -6.8815,-8.80734 -27.0203,29.08837 -50.9689,68.74171 -33.1023,105.11906 15.1932,26.78727 55.0801,28.5924 85.9209,22.84028 z m 79.9984,-351.72629 c 8.6197,-13.95058 26.2052,-40.75084 18.4587,-49.4426 -35.2514,23.30798 -74.9537,42.25557 -118.135,53.94002 31.371,2.41357 63.0562,1.14665 94.5709,1.60297 z m 129.1384,-30.92703 c -33.4348,-13.88127 -5.9512,-55.18673 27.5549,-43.88299 35.0779,14.58516 8.7386,59.09454 -27.5549,43.88299 z"
         id="path1"
         sodipodi:nodetypes="scccccccccccccccccccccccccccccccccssccccccccccccccccccccc" />
      <text
         xml:space="preserve"
         style="font-size:253.634px;writing-mode:lr-tb;direction:ltr;display:none;stroke:#1a1a1a;stroke-width:1.80226"
         x="-95.71582"
         y="1081.5571"
         id="text1"
         transform="scale(1.1097642,0.90109232)"><tspan
           id="tspan1"
           x="0"
           y="0"
           style="font-style:normal;font-variant:normal;font-weight:normal;font-stretch:normal;font-size:253.634px;font-family:Pristina;-inkscape-font-specification:Pristina;stroke-width:1.80226"
           sodipodi:role="line">TAMISSA</tspan></text>
    </g>
  </g>
  <g
     inkscape:groupmode="layer"
     id="layer1"
     inkscape:label="Image 2" />
</svg>
