<?xml version="1.0" encoding="UTF-8" standalone="no"?>
<!-- Created with Inkscape (http://www.inkscape.org/) -->

<svg
   version="1.1"
   id="svg1"
   width="1079.7638"
   height="796.41071"
   viewBox="0 0 1079.7638 796.41071"
   sodipodi:docname="tamissa_logo.svg"
   inkscape:version="1.4.3 (0d15f75, 2025-12-25)"
   inkscape:export-filename="gallery\static\gallery\images\Logo-removebg.png"
   inkscape:export-xdpi="96"
   inkscape:export-ydpi="96"
   inkscape:export-batch-name="tamissa_logo"
   inkscape:export-batch-path="E:\Tamissa Brand\My shop"
   xmlns:inkscape="http://www.inkscape.org/namespaces/inkscape"
   xmlns:sodipodi="http://sodipodi.sourceforge.net/DTD/sodipodi-0.dtd"
   xmlns="http://www.w3.org/2000/svg"
   xmlns:svg="http://www.w3.org/2000/svg">
  <defs
     id="defs1" />
  <sodipodi:namedview
     id="namedview1"
     pagecolor="#ffffff"
     bordercolor="#000000"
     borderopacity="0.25"
     inkscape:showpageshadow="2"
     inkscape:pageopacity="0.0"
     inkscape:pagecheckerboard="0"
     inkscape:deskcolor="#d1d1d1"
     inkscape:zoom="0.51970416"
     inkscape:cx="877.42226"
     inkscape:cy="657.10461"
     inkscape:window-width="1920"
     inkscape:window-height="1009"
     inkscape:window-x="-8"
     inkscape:window-y="-8"
     inkscape:window-maximized="1"
     inkscape:current-layer="layer2">
    <inkscape:page
       x="0"
       y="0"
       width="1079.7638"
       height="796.41071"
       id="page2"
       margin="0"
       bleed="0" />
  </sodipodi:namedview>
  <g
     inkscape:groupmode="layer"
     id="layer2"
     inkscape:label="Image 1"
     transform="translate(-2.0421929,-134.19203)">
    <g
       id="g2"
       transform="translate(-9.6208577,51.952634)">
      <rect
         style="fill:#f4eed7;stroke:#1a1a1a;stroke-width:1.86335"
         id="rect1"
         width="1077.9005"
         height="794.54736"
         x="12.594726"
         y="83.171066"
         ry="397.27368"
         rx="538.95026" />
      <path
         style="stroke:#1a1a1a;stroke-width:1.80226"
         d="m 449.72137,749.40643 c -34.39187,-4.91263 -52.18889,-26.78219 -59.21076,-59.90859 -0.57029,-20.29962 3.73423,-46.281 20.09158,-70.95455 12.9038,-18.54059 33.3431,-33.28907 47.37828,-50.0536 12.12476,-16.53237 16.61527,-36.96807 29.12001,-53.89186 8.30361,-15.6684 17.67883,-31.60271 27.88243,-46.7964 9.84684,-14.99058 18.26308,-30.82203 27.88245,-45.79435 10.71168,-20.56163 17.66213,-21.44663 -4.80437,-21.82413 -81.3324,0.4075 -166.20589,-0.84397 -242.08923,26.10478 -29.5812,11.76215 -65.32698,36.42553 -52.6567,66.37579 13.9826,28.18264 52.27896,33.58885 90.12519,29.49749 22.8371,-3.22231 39.64262,-10.58445 52.68238,-10.87752 -44.11365,19.74318 -107.36467,27.35949 -147.74284,-2.34417 -21.75339,-16.44166 -20.53037,-45.05091 -5.40915,-63.87395 14.22845,-18.07112 37.15917,-32.69541 63.03101,-40.19707 22.92006,-6.43218 45.64981,-12.30149 69.96219,-15.63461 47.8402,-5.29028 98.05271,-7.75537 139.96457,-29.40586 32.95307,-14.9899 62.35371,-35.55657 87.92013,-58.01012 12.33141,-14.39564 25.47328,-27.79973 35.13904,-43.51281 11.80232,-22.42374 17.87704,-48.23201 12.66554,-73.25624 -1.68884,-18.28069 20.24546,20.19973 20.28091,27.07683 12.72611,57.40993 -19.90769,112.43101 -45.57972,164.31152 17.05153,11.42616 59.03297,6.54256 89.16531,9.26988 38.44947,1.68239 79.75017,1.16526 112.30234,20.54057 38.30367,14.89963 56.6131,64.1746 16.16759,85.5002 -12.65316,10.802 -75.74936,14.31411 -33.50661,0.15217 34.20094,-10.7418 48.25276,-49.37826 22.03718,-71.30967 -38.85669,-29.29462 -96.30258,-21.87874 -145.15002,-24.3779 -30.17211,1.03943 -64.6007,-7.41255 -84.22958,19.57048 -19.3916,32.25708 -39.02667,64.4401 -57.15692,97.17789 28.80391,-9.62118 54.51635,-21.25994 83.94401,-27.97584 31.95071,-4.92252 75.28188,-8.55207 93.2892,19.26157 21.57388,40.20445 -5.5022,84.43082 -32.28002,118.3399 -42.22696,50.55048 -97.14113,98.10288 -168.57409,120.56716 -19.98912,5.44156 -41.56465,9.06674 -62.64133,6.25298 z m 43.16059,-23.00922 c 49.88898,-10.79282 104.05795,-48.22681 127.10543,-66.2943 14.9713,-11.89522 30.68951,-29.92082 42.88309,-46.5703 25.40843,-39.02696 21.91376,-30.88766 28.08544,-48.38121 3.82447,-24.9724 9.18733,-62.87017 -30.05504,-70.60478 -44.44203,-5.08028 -109.44568,21.54162 -121.59365,34.40988 -12.73869,11.26609 -30.28968,23.82255 -44.99017,69.71967 -8.67635,29.84247 -17.46929,69.77014 16.06221,91.77869 21.63973,11.62326 -27.94687,1.63909 -41.54661,-10.82621 -23.28974,-19.44324 -23.13443,-47.91131 -21.8878,-72.38344 3.24508,-12.10609 5.99195,-24.60422 -6.88154,-8.80734 -27.02028,29.08837 -50.96888,68.74171 -33.10223,105.11906 15.19319,26.78727 55.08005,28.5924 85.92087,22.84028 z M 572.8803,374.67092 c 8.61971,-13.95058 26.20521,-40.75084 18.45879,-49.4426 -35.25141,23.30798 -74.95375,42.25557 -118.13509,53.94002 31.37108,2.41357 63.05625,1.14665 94.57098,1.60297 z m 129.13842,-30.92703 c -33.4348,-13.88127 -5.95119,-55.18673 27.55493,-43.88299 35.0779,14.58516 8.7386,59.09454 -27.55493,43.88299 z"
         id="path1"
         sodipodi:nodetypes="scccccccccccccccccccccccccccccccccssccccccccccccccccccccc" />
      <text
         xml:space="preserve"
         style="font-size:253.634px;writing-mode:lr-tb;direction:ltr;display:none;stroke:#1a1a1a;stroke-width:1.80226"
         x="-95.71582"
         y="1081.5571"
         id="text1"
         transform="scale(1.1097642,0.90109232)"><tspan
           id="tspan1"
           x="0"
           y="0"
           style="font-style:normal;font-variant:normal;font-weight:normal;font-stretch:normal;font-size:253.634px;font-family:Pristina;-inkscape-font-specification:Pristina;stroke-width:1.80226"
           sodipodi:role="line">TAMISSA</tspan></text>
    </g>
  </g>
</svg>
